<svg xmlns="http://www.w3.org/2000/svg" width="92" height="55" viewBox="0 0 92 55">
    <g fill="none" fill-rule="evenodd">
        <g>
            <g>
                <g>
                    <g>
                        <path fill="#2E62EE" d="M19.236 11.468v7.483l6.194-7.483h5.929l-6.458 7.07 10.174 15.39h-5.81l-7.484-11.975-2.545 2.785v3.439h-4.657v-16.71h4.657zm17.983-.243c2.16 0 4.105.63 6.001 2.567l-2.544 2.858c-1.2-1.405-2.545-1.816-3.673-1.816-.888 0-1.417.242-1.417.775 0 .678.769.944 2.425 1.404 2.497.702 5.69 1.671 5.69 5.643 0 3.535-2.57 5.715-6.29 5.715-3.025 0-5.45-1.429-7.226-3.996l3.193-2.64c1.224 1.768 2.593 2.713 3.985 2.713 1.176 0 1.8-.678 1.8-1.453 0-1.042-1.104-1.332-3.096-1.865-2.377-.63-5.042-1.526-5.042-4.892 0-3.342 2.665-5.013 6.194-5.013zm47.697 0l6.024 16.977h-5.073l-1.146-3.74h-5.634l-1.17 3.74h-5.122V28.2l-4.598.001-2.953-6.32h-2.76v6.32h-4.585V11.468h8.618c3.216 0 5.69 1.888 5.69 5.11 0 2.203-1.01 3.632-2.762 4.625l3.543 6.453 5.806-16.43h6.122zm-70.764.243l-1.997 3.923H5.314v2.446h8.358l-1.997 3.923H5.314v2.47h8.838l-1.997 3.947H.657v-16.71h13.495zm42.627 0v3.923H52.17v12.786h-4.657V15.391h-4.561l3.9-3.923h9.927zm25.21 4.21h-.122l-1.585 4.995 4.439 3.789-1.195-3.789-1.537-4.994zm-15.976-.336h-3.505v3.003l3.505-.024c1.2-.024 1.704-.654 1.704-1.502 0-.871-.504-1.477-1.704-1.477z" transform="translate(-405.000000, -334.000000) translate(383.130000, 334.142857) translate(0.000000, 12.866190) translate(21.598291, 0.000000)"/>
                        <g fill="#FF7F00">
                            <path d="M24.37 5.461l.916-.007c1.063 0 1.513-.025 1.53.896-.017 2.787.03.325 0 2.838h2.279V6.02c-.092-.54.116-1.393-1.388-1.393.83 0 1.501-.6 1.501-1.9 0-1.846-1.828-2.241-3.24-2.241h-3.86v8.702l2.262.003V5.46zm0-1.573v-1.71l.949-.006c.742 0 1.574-.066 1.574.824 0 .892-.832.885-1.573.885l-.95.007zM2.693 9.195V3.808l1.2 5.387 2.14-.004 1.166-5.86v5.864h2.357L9.55.54H5.859l-.642 4.088L4.41.54h-3.6l.002 8.656h1.88zm7.995-.02h2.29V2.521h-2.29v6.652zm22.949.133c2.496 0 3.996-1.627 3.996-4.424 0-2.792-1.5-4.41-3.996-4.41-2.498 0-3.976 1.632-3.976 4.432 0 2.792 1.478 4.402 3.976 4.402zm1.642-4.39c0 1.262-.243 3.057-1.662 3.057C32.195 7.975 32 6.194 32 4.938c0-1.329.216-3.088 1.635-3.088 1.415 0 1.644 1.74 1.644 3.069zm-16.174 1.05c0 1.874-1.464 1.826-1.538 1.826-1.015 0-1.617-1.178-1.617-2.856 0-1.387.311-3.139 1.679-3.139.7 0 1.324.577 1.296 1.368h2.25c-.25-1.957-1.606-2.733-3.84-2.74-2.138-.006-3.847 1.779-3.847 4.454 0 2.676 1.693 4.404 3.817 4.404 1.263 0 2-.802 2-.802v.705s1.478.017 1.925 0V3.971h-3.817v1.572h1.692v.424zm-8.417-3.952h2.292V.55h-2.292v1.465zM45.144 3.26c.129-2.065-1.825-2.852-3.482-2.852-1.68 0-3.48.628-3.563 2.656 0 .925.445 1.805 1.256 2.181 1.748.82 3.57.643 3.57 1.693 0 .87-.75 1.001-1.26 1.001-.799 0-1.362-.707-1.35-1.51h-2.3c0 2.299 1.756 2.907 3.622 2.907 1.86 0 3.768-.826 3.768-2.628 0-2.313-2.176-2.554-3.525-2.921-.591-.167-1.33-.308-1.355-.94-.013-.358.173-.865.986-.865.379 0 .812.15.998.327.203.18.418.618.407.95h2.228z" transform="translate(-405.000000, -334.000000) translate(383.130000, 334.142857) translate(0.000000, 12.866190) translate(21.598291, 0.000000) translate(0.000000, 0.000000)"/>
                        </g>
                    </g>
                </g>
            </g>
        </g>
    </g>
</svg>
