<svg width="24" height="24" viewBox="0 0 24 24" xmlns="http://www.w3.org/2000/svg">
    <path d="M12 0C7.05 0 3 4.05 3 9c0 3.6 1.2 4.65 8.1 14.55.45.6 1.35.6 1.8 0C19.8 13.65 21 12.6 21 9c0-4.95-4.05-9-9-9zm3 5.492a1.258 1.258 0 1 1 0 2.517 1.258 1.258 0 0 1 0-2.517zm-6 0a1.258 1.258 0 1 1 0 2.517 1.258 1.258 0 0 1 0-2.517zm7.695 6.608A6.156 6.156 0 0 1 12 14.25a6.16 6.16 0 0 1-4.695-2.15.749.749 0 1 1 1.14-.974A4.663 4.663 0 0 0 12 12.75a4.658 4.658 0 0 0 3.555-1.625.75.75 0 1 1 1.14.975z" fill="#2E62EE" fill-rule="evenodd"/>
</svg>
