<svg xmlns="http://www.w3.org/2000/svg" xmlns:xlink="http://www.w3.org/1999/xlink" width="258" height="50" viewBox="0 0 258 50">
    <defs>
        <filter id="c8fkdfr21d" width="117%" height="112.5%" x="-8.5%" y="-6.2%" filterUnits="objectBoundingBox">
            <feOffset in="SourceAlpha" result="shadowOffsetOuter1"/>
            <feGaussianBlur in="shadowOffsetOuter1" result="shadowBlurOuter1" stdDeviation="2.5"/>
            <feComposite in="shadowBlurOuter1" in2="SourceAlpha" operator="out" result="shadowBlurOuter1"/>
            <feColorMatrix in="shadowBlurOuter1" values="0 0 0 0 0 0 0 0 0 0 0 0 0 0 0 0 0 0 0.1 0"/>
        </filter>
        <filter id="h5r9yzxrnf" width="128.9%" height="121.8%" x="-14.5%" y="-10.9%" filterUnits="objectBoundingBox">
            <feOffset in="SourceAlpha" result="shadowOffsetOuter1"/>
            <feGaussianBlur in="shadowOffsetOuter1" result="shadowBlurOuter1" stdDeviation="2.5"/>
            <feComposite in="shadowBlurOuter1" in2="SourceAlpha" operator="out" result="shadowBlurOuter1"/>
            <feColorMatrix in="shadowBlurOuter1" values="0 0 0 0 0 0 0 0 0 0 0 0 0 0 0 0 0 0 0.1 0"/>
        </filter>
        <filter id="f68f05x67h" width="128.9%" height="121.8%" x="-14.5%" y="-10.9%" filterUnits="objectBoundingBox">
            <feOffset in="SourceAlpha" result="shadowOffsetOuter1"/>
            <feGaussianBlur in="shadowOffsetOuter1" result="shadowBlurOuter1" stdDeviation="2.5"/>
            <feComposite in="shadowBlurOuter1" in2="SourceAlpha" operator="out" result="shadowBlurOuter1"/>
            <feColorMatrix in="shadowBlurOuter1" values="0 0 0 0 0 0 0 0 0 0 0 0 0 0 0 0 0 0 0.1 0"/>
        </filter>
        <filter id="twzx8fauuj" width="129.3%" height="121.4%" x="-14.7%" y="-10.7%" filterUnits="objectBoundingBox">
            <feOffset in="SourceAlpha" result="shadowOffsetOuter1"/>
            <feGaussianBlur in="shadowOffsetOuter1" result="shadowBlurOuter1" stdDeviation="2.5"/>
            <feComposite in="shadowBlurOuter1" in2="SourceAlpha" operator="out" result="shadowBlurOuter1"/>
            <feColorMatrix in="shadowBlurOuter1" values="0 0 0 0 0 0 0 0 0 0 0 0 0 0 0 0 0 0 0.1 0"/>
        </filter>
        <filter id="dkvwmy5jhl" width="129.3%" height="121.4%" x="-14.7%" y="-10.7%" filterUnits="objectBoundingBox">
            <feOffset in="SourceAlpha" result="shadowOffsetOuter1"/>
            <feGaussianBlur in="shadowOffsetOuter1" result="shadowBlurOuter1" stdDeviation="2.5"/>
            <feComposite in="shadowBlurOuter1" in2="SourceAlpha" operator="out" result="shadowBlurOuter1"/>
            <feColorMatrix in="shadowBlurOuter1" values="0 0 0 0 0 0 0 0 0 0 0 0 0 0 0 0 0 0 0.1 0"/>
        </filter>
        <filter id="lkoub2td7n" width="129.3%" height="121.4%" x="-14.7%" y="-10.7%" filterUnits="objectBoundingBox">
            <feOffset in="SourceAlpha" result="shadowOffsetOuter1"/>
            <feGaussianBlur in="shadowOffsetOuter1" result="shadowBlurOuter1" stdDeviation="2.5"/>
            <feComposite in="shadowBlurOuter1" in2="SourceAlpha" operator="out" result="shadowBlurOuter1"/>
            <feColorMatrix in="shadowBlurOuter1" values="0 0 0 0 0 0 0 0 0 0 0 0 0 0 0 0 0 0 0.1 0"/>
        </filter>
        <path id="s91c4c2nge" d="M261.354 120h-.78c-2.862-.166-5.724-1.159-8.325-2.98-2.211-1.489-4.293-3.64-5.983-6.289-1.301-1.986-2.342-3.972-2.992-5.462l-.26-.497c-.78-1.49-1.17-2.151-1.561-2.482-.39-.331-1.04-.497-2.471-.828h-.39c-1.431-.165-3.252-.496-5.203-1.159-2.602-.827-4.943-2.317-7.024-4.303-2.342-2.152-4.293-5.131-5.593-8.276-1.301-3.31-2.081-6.952-2.081-10.593-.13-3.145.39-6.62 1.3-9.765.65-2.483 1.561-4.635 2.211-6.125l.26-.496c.65-1.655.911-2.483.911-2.98 0-.662-.13-1.49-.78-3.144l-.13-.497c-.52-1.655-1.301-3.807-1.821-6.29-.65-3.31-.91-6.62-.65-9.765.26-3.641 1.3-7.283 2.86-10.262 1.562-3.145 3.643-5.793 6.114-7.614 2.081-1.655 4.683-2.814 7.284-3.476 2.081-.496 3.902-.496 5.203-.662h.52c1.431 0 2.081-.165 2.472-.496.39-.331.91-.828 1.82-2.318l.26-.496c.911-1.49 1.952-3.31 3.383-5.131 1.95-2.317 4.162-4.304 6.373-5.628C258.622.662 261.354 0 263.955 0h.78c2.862.166 5.724 1.159 8.325 2.98 2.211 1.489 4.292 3.64 5.983 6.289 1.301 1.986 2.342 3.972 2.992 5.462l.26.497c.78 1.49 1.17 2.151 1.561 2.482.39.331 1.04.497 2.471.828h.52c1.301.165 3.122.496 5.204 1.159 2.6.827 4.942 2.317 7.023 4.303 2.342 2.152 4.293 5.131 5.593 8.276 1.301 3.31 2.082 6.952 2.082 10.593.13 3.145-.39 6.62-1.301 9.765-.65 2.483-1.561 4.635-2.211 6.125l-.26.496c-.65 1.655-.911 2.317-.911 2.98 0 .662.13 1.49.78 3.144l.13.497c.52 1.655 1.301 3.807 1.821 6.29.65 3.31.91 6.62.65 9.765-.39 3.641-1.3 7.283-2.86 10.262-1.562 3.145-3.643 5.793-6.114 7.614-2.081 1.655-4.683 2.814-7.284 3.476-2.081.496-3.902.496-5.203.662h-.52c-1.431 0-2.081.165-2.472.496-.39.331-.91.828-1.82 2.318l-.26.496c-.911 1.49-1.952 3.31-3.383 5.131-1.82 2.317-4.032 4.304-6.373 5.628-2.601 1.158-5.333 1.986-7.804 1.986z"/>
        <path id="up2ostve5g" d="M227.992 16.446l-.462-.03c-1.696-.208-3.417-.892-5.011-2.041-1.353-.944-2.65-2.263-3.732-3.852-.83-1.194-1.507-2.377-1.937-3.259l-.17-.296c-.507-.887-.758-1.283-1-1.489-.24-.205-.63-.326-1.485-.573l-.23-.015c-.851-.152-1.938-.414-3.111-.871-1.563-.578-2.993-1.527-4.285-2.751-1.45-1.33-2.696-3.12-3.562-4.979-.872-1.955-1.446-4.079-1.56-6.173-.174-1.813.025-3.791.465-5.564.307-1.402.778-2.603 1.116-3.434l.138-.275c.333-.926.461-1.392.446-1.678-.02-.38-.124-.861-.56-1.838l-.092-.291c-.359-.972-.887-2.24-1.271-3.688-.488-1.93-.745-3.843-.689-5.641.04-2.084.542-4.136 1.372-5.788.824-1.747 1.972-3.188 3.375-4.137 1.179-.87 2.68-1.434 4.196-1.712 1.215-.204 2.29-.132 3.054-.176l.307.02c.846.057 1.225-.013 1.445-.188.22-.175.513-.44 1.004-1.26l.138-.276c.492-.82 1.05-1.826 1.84-2.817 1.08-1.256 2.325-2.31 3.59-2.985 1.342-.67 2.936-.942 4.473-.84l.461.03c1.696.209 3.418.892 5.012 2.042 1.353.943 2.65 2.262 3.731 3.852.83 1.193 1.507 2.376 1.938 3.258l.17.296c.507.887.758 1.283.999 1.489.24.206.63.326 1.486.573l.307.02c.774.147 1.86.409 3.11.872 1.564.578 2.993 1.527 4.285 2.75 1.45 1.33 2.696 3.12 3.563 4.98.871 1.954 1.446 4.078 1.559 6.172.175 1.814-.025 3.792-.465 5.564-.307 1.402-.778 2.603-1.116 3.434l-.138.276c-.333.926-.466 1.296-.445 1.677.02.38.123.862.559 1.839l.092.29c.36.973.887 2.24 1.272 3.689.487 1.929.744 3.842.688 5.64-.117 2.079-.542 4.137-1.371 5.788-.825 1.747-1.972 3.188-3.376 4.138-1.178.87-2.68 1.433-4.196 1.711-1.214.204-2.29.132-3.054.176l-.307-.02c-.845-.056-1.225.013-1.445.188-.22.175-.512.44-1.004 1.26l-.138.276c-.492.82-1.05 1.827-1.839 2.817-1.004 1.261-2.248 2.316-3.59 2.985-1.502.564-3.09.932-4.55.835z"/>
        <path id="gw03w54cvi" d="M191.022 66.446l-.461-.03c-1.696-.208-3.418-.892-5.012-2.041-1.353-.944-2.65-2.263-3.731-3.852-.83-1.194-1.507-2.377-1.938-3.259l-.17-.296c-.507-.887-.758-1.283-.999-1.489-.24-.205-.63-.326-1.486-.573l-.23-.015c-.85-.152-1.937-.414-3.11-.871-1.564-.578-2.994-1.527-4.285-2.751-1.45-1.33-2.696-3.12-3.563-4.979-.871-1.955-1.446-4.079-1.56-6.173-.174-1.813.025-3.791.466-5.564.307-1.402.778-2.603 1.116-3.434l.138-.275c.333-.926.46-1.392.445-1.678-.02-.38-.123-.861-.559-1.838l-.092-.291c-.36-.972-.887-2.24-1.272-3.688-.487-1.93-.744-3.843-.688-5.641.04-2.084.542-4.136 1.371-5.788.825-1.747 1.972-3.188 3.376-4.137 1.178-.87 2.68-1.434 4.196-1.712 1.214-.204 2.29-.132 3.053-.176l.308.02c.845.057 1.225-.013 1.445-.188.22-.175.512-.44 1.004-1.26l.138-.276c.492-.82 1.05-1.826 1.839-2.817 1.08-1.256 2.325-2.31 3.59-2.985 1.343-.67 2.936-.942 4.474-.84l.46.03c1.697.209 3.419.892 5.012 2.042 1.353.943 2.65 2.262 3.732 3.852.83 1.193 1.507 2.376 1.937 3.258l.17.296c.507.887.758 1.283 1 1.489.24.206.63.326 1.485.573l.308.02c.773.147 1.86.409 3.11.872 1.563.578 2.993 1.527 4.285 2.75 1.45 1.33 2.696 3.12 3.562 4.98.872 1.954 1.446 4.078 1.56 6.172.174 1.814-.025 3.792-.465 5.564-.307 1.402-.778 2.603-1.116 3.434l-.138.276c-.333.926-.466 1.296-.446 1.677.02.38.123.862.56 1.839l.092.29c.359.973.887 2.24 1.271 3.689.488 1.929.744 3.842.689 5.64-.118 2.079-.542 4.137-1.372 5.788-.824 1.747-1.972 3.188-3.375 4.138-1.179.87-2.68 1.433-4.196 1.711-1.215.204-2.29.132-3.054.176l-.307-.02c-.846-.056-1.225.013-1.445.188-.22.175-.513.44-1.004 1.26l-.139.276c-.491.82-1.05 1.827-1.838 2.817-1.004 1.261-2.249 2.316-3.591 2.985-1.501.564-3.09.932-4.55.835z"/>
        <path id="mztzofx0ok" d="M137.649 39.848h-.453c-1.661-.097-3.322-.676-4.832-1.738-1.283-.87-2.49-2.125-3.472-3.67-.755-1.158-1.359-2.317-1.736-3.186l-.151-.29c-.453-.868-.68-1.254-.906-1.448-.226-.193-.604-.29-1.434-.482h-.227c-.83-.097-1.887-.29-3.02-.676-1.509-.483-2.868-1.352-4.076-2.51-1.358-1.256-2.49-2.994-3.246-4.828-.754-1.931-1.207-4.055-1.207-6.18-.076-1.834.226-3.861.755-5.696.377-1.448.905-2.703 1.283-3.572l.15-.29c.378-.966.53-1.448.53-1.738 0-.386-.076-.869-.454-1.834l-.075-.29c-.302-.966-.755-2.22-1.057-3.669-.377-1.931-.528-3.862-.377-5.697.15-2.124.754-4.248 1.66-5.986.906-1.834 2.114-3.38 3.548-4.441 1.208-.966 2.718-1.642 4.227-2.028 1.208-.29 2.265-.29 3.02-.386h.302c.83 0 1.208-.097 1.434-.29.227-.193.529-.482 1.057-1.351l.151-.29c.528-.869 1.132-1.931 1.963-2.993 1.132-1.352 2.415-2.51 3.699-3.283 1.358-.772 2.944-1.158 4.453-1.158h.453c1.661.096 3.322.675 4.831 1.737 1.284.87 2.492 2.125 3.473 3.67.755 1.158 1.359 2.317 1.736 3.186l.151.29c.453.868.68 1.254.906 1.448.226.193.604.29 1.434.482h.302c.755.097 1.812.29 3.02.676 1.51.483 2.868 1.352 4.076 2.51 1.359 1.256 2.491 2.994 3.246 4.828.755 1.931 1.208 4.055 1.208 6.18.075 1.834-.227 3.861-.755 5.696-.378 1.448-.906 2.703-1.283 3.572l-.151.29c-.378.966-.529 1.352-.529 1.738 0 .386.076.869.453 1.834l.076.29c.302.966.754 2.22 1.056 3.67.378 1.93.529 3.861.378 5.696-.227 2.124-.755 4.248-1.66 5.986-.907 1.834-2.114 3.38-3.549 4.441-1.208.966-2.717 1.642-4.227 2.028-1.208.29-2.265.29-3.02.386h-.302c-.83 0-1.207.097-1.434.29-.226.193-.528.482-1.057 1.351l-.15.29c-.529.869-1.133 1.931-1.963 2.993-1.057 1.352-2.34 2.51-3.7 3.283-1.509.676-3.094 1.159-4.528 1.159z"/>
        <path id="0obahuxlbm" d="M85.338 27h-.452c-1.661-.097-3.322-.676-4.832-1.738-1.283-.869-2.49-2.124-3.472-3.669-.755-1.159-1.359-2.317-1.736-3.186l-.151-.29c-.453-.869-.68-1.255-.906-1.448-.227-.193-.604-.29-1.434-.483h-.227c-.83-.096-1.887-.29-3.02-.676-1.51-.482-2.868-1.351-4.076-2.51-1.358-1.255-2.49-2.993-3.246-4.828-.755-1.93-1.207-4.055-1.207-6.179-.076-1.834.226-3.862.754-5.696.378-1.449.906-2.704 1.284-3.573l.15-.29c.378-.965.53-1.448.53-1.737 0-.387-.076-.87-.454-1.835l-.075-.29c-.302-.965-.755-2.22-1.057-3.669-.378-1.93-.529-3.862-.378-5.696.151-2.124.755-4.248 1.661-5.986.906-1.835 2.114-3.38 3.548-4.442 1.208-.965 2.718-1.641 4.227-2.027 1.208-.29 2.265-.29 3.02-.386h.302c.83 0 1.208-.097 1.434-.29.227-.193.529-.483 1.057-1.352l.15-.29c.53-.868 1.133-1.93 1.964-2.993 1.132-1.351 2.415-2.51 3.698-3.282 1.36-.773 2.944-1.159 4.454-1.159h.453c1.66.097 3.322.676 4.831 1.738 1.284.869 2.491 2.124 3.473 3.669.755 1.159 1.359 2.317 1.736 3.186l.151.29c.453.869.68 1.255.906 1.448.226.193.604.29 1.434.483h.302c.755.096 1.812.29 3.02.676 1.51.482 2.868 1.351 4.076 2.51 1.359 1.255 2.491 2.993 3.246 4.828.755 1.93 1.208 4.055 1.208 6.179.075 1.834-.227 3.862-.755 5.696-.378 1.449-.906 2.704-1.284 3.573l-.15.29c-.378.965-.529 1.351-.529 1.737 0 .387.076.87.453 1.835l.076.29c.301.965.754 2.22 1.056 3.669.378 1.93.529 3.862.378 5.696-.227 2.124-.755 4.248-1.661 5.986-.906 1.835-2.114 3.38-3.548 4.442-1.208.965-2.717 1.641-4.227 2.027-1.208.29-2.265.29-3.02.386h-.302c-.83 0-1.207.097-1.434.29-.226.193-.528.483-1.057 1.352l-.15.29c-.53.868-1.133 1.93-1.963 2.993-1.057 1.351-2.34 2.51-3.7 3.282-1.509.676-3.094 1.159-4.529 1.159z"/>
        <path id="pdnu5pl9mo" d="M101.857 92h-.453c-1.66-.097-3.322-.676-4.831-1.738-1.284-.869-2.491-2.124-3.473-3.669-.755-1.159-1.359-2.317-1.736-3.186l-.151-.29c-.453-.869-.68-1.255-.906-1.448-.226-.193-.604-.29-1.434-.483h-.227c-.83-.096-1.887-.29-3.02-.676-1.509-.482-2.868-1.351-4.075-2.51-1.36-1.255-2.491-2.993-3.246-4.828-.755-1.93-1.208-4.055-1.208-6.179-.076-1.834.226-3.862.755-5.696.377-1.449.906-2.704 1.283-3.573l.151-.29c.377-.965.528-1.448.528-1.737 0-.387-.075-.87-.453-1.835l-.075-.29c-.302-.965-.755-2.22-1.057-3.669-.377-1.93-.528-3.862-.377-5.696.15-2.124.755-4.248 1.66-5.986.906-1.835 2.114-3.38 3.548-4.442 1.208-.965 2.718-1.641 4.228-2.027 1.207-.29 2.264-.29 3.02-.386h.301c.83 0 1.208-.097 1.434-.29.227-.193.529-.483 1.057-1.352l.151-.29c.529-.868 1.133-1.93 1.963-2.993 1.132-1.351 2.415-2.51 3.699-3.282 1.359-.773 2.944-1.159 4.454-1.159h.452c1.661.097 3.322.676 4.832 1.738 1.283.869 2.49 2.124 3.472 3.669.755 1.159 1.359 2.317 1.736 3.186l.151.29c.453.869.68 1.255.906 1.448.227.193.604.29 1.434.483h.302c.755.096 1.812.29 3.02.676 1.51.482 2.868 1.351 4.076 2.51 1.359 1.255 2.491 2.993 3.246 4.828.755 1.93 1.208 4.055 1.208 6.179.075 1.834-.227 3.862-.755 5.696-.377 1.449-.906 2.704-1.283 3.573l-.151.29c-.378.965-.529 1.351-.529 1.737 0 .387.076.87.453 1.835l.076.29c.302.965.755 2.22 1.057 3.669.377 1.93.528 3.862.377 5.696-.226 2.124-.755 4.248-1.66 5.986-.907 1.835-2.114 3.38-3.549 4.442-1.207.965-2.717 1.641-4.227 2.027-1.208.29-2.265.29-3.02.386h-.301c-.83 0-1.208.097-1.435.29-.226.193-.528.483-1.056 1.352l-.151.29c-.529.868-1.133 1.93-1.963 2.993-1.057 1.351-2.34 2.51-3.699 3.282-1.51.676-3.095 1.159-4.53 1.159z"/>
        <linearGradient id="db3nq6gkbb" x1="63.985%" x2="0%" y1="50%" y2="50%">
            <stop offset="0%" stop-color="#412761"/>
            <stop offset="100%" stop-color="#634C7F"/>
        </linearGradient>
        <rect id="00et7oq0ta" width="258" height="50" x="0" y="0" rx="3"/>
    </defs>
    <g fill="none" fill-rule="evenodd">
        <g>
            <g transform="translate(-113 -375) translate(113 375)">
                <mask id="xm0wgszayc" fill="#fff">
                    <use xlink:href="#00et7oq0ta"/>
                </mask>
                <use fill="url(#db3nq6gkbb)" xlink:href="#00et7oq0ta"/>
                <g fill-rule="nonzero" mask="url(#xm0wgszayc)" opacity=".6">
                    <use fill="#000" filter="url(#c8fkdfr21d)" xlink:href="#s91c4c2nge"/>
                    <use fill="#FFF" fill-opacity=".1" xlink:href="#s91c4c2nge"/>
                </g>
                <g fill-rule="nonzero" mask="url(#xm0wgszayc)" opacity=".4" transform="rotate(15 226.931 -18.005)">
                    <use fill="#000" filter="url(#h5r9yzxrnf)" xlink:href="#up2ostve5g"/>
                    <use fill="#FFF" fill-opacity=".1" xlink:href="#up2ostve5g"/>
                </g>
                <g fill-rule="nonzero" mask="url(#xm0wgszayc)" opacity=".3" transform="rotate(15 189.962 31.995)">
                    <use fill="#000" filter="url(#f68f05x67h)" xlink:href="#gw03w54cvi"/>
                    <use fill="#FFF" fill-opacity=".1" xlink:href="#gw03w54cvi"/>
                </g>
                <g fill-rule="nonzero" mask="url(#xm0wgszayc)" opacity=".3">
                    <use fill="#000" filter="url(#twzx8fauuj)" xlink:href="#mztzofx0ok"/>
                    <use fill="#FFF" fill-opacity=".1" xlink:href="#mztzofx0ok"/>
                </g>
                <g fill-rule="nonzero" mask="url(#xm0wgszayc)" opacity=".3">
                    <use fill="#000" filter="url(#dkvwmy5jhl)" xlink:href="#0obahuxlbm"/>
                    <use fill="#FFF" fill-opacity=".1" xlink:href="#0obahuxlbm"/>
                </g>
                <g fill-rule="nonzero" mask="url(#xm0wgszayc)" opacity=".3">
                    <use fill="#000" filter="url(#lkoub2td7n)" xlink:href="#pdnu5pl9mo"/>
                    <use fill="#FFF" fill-opacity=".1" xlink:href="#pdnu5pl9mo"/>
                </g>
            </g>
        </g>
    </g>
</svg>
