<svg xmlns="http://www.w3.org/2000/svg" width="72" height="19" viewBox="0 0 72 19">
    <g fill="none" fill-rule="evenodd">
        <g>
            <g>
                <g>
                    <path fill="#F58320" d="M26.68 6.24c-.72.003-1.204.242-1.617.802-.435.588-.655 1.385-.652 2.372.003 1.007.223 1.815.653 2.4.397.534.887.762 1.635.76.739-.002 1.243-.241 1.636-.776.423-.582.637-1.39.634-2.397-.003-.987-.226-1.783-.664-2.365-.418-.56-.904-.797-1.624-.795m31.07.86c.555.594.85 1.339.853 2.152.002.82-.286 1.56-.832 2.14-.408.427-.905.721-1.467.872.743.09 1.39.405 1.89.926l.048.052c.52.607.777 1.31.779 2.106.002.821-.285 1.561-.832 2.14-.572.631-1.403.987-2.33.99l-5.439.016c-.774.002-1.48-.231-2.06-.676-.593.53-1.352.812-2.204.814-1.054.003-2.003-.475-2.67-1.345l-3.72-4.842.008 2.896c.003.97-.323 1.801-.94 2.406-.607.594-1.404.91-2.305.913-.9.002-1.7-.308-2.31-.9-.504-.487-.816-1.124-.918-1.863l-.12.135c-1.67 1.838-3.845 2.774-6.465 2.782-2.443.007-4.51-.805-6.15-2.414-.14.539-.418 1.018-.82 1.412-.601.588-1.38.9-2.253.903-1.78.005-3.049-1.105-3.31-2.897l-.141-.954-.407 1.432c-.45 1.547-1.648 2.434-3.289 2.439-1.64.005-2.843-.874-3.3-2.41l-.417-1.44-.137.959c-.25 1.79-1.513 2.906-3.292 2.912-.874.002-1.655-.305-2.258-.89-.614-.594-.94-1.384-.943-2.285 0-.253.013-.455.043-.634L1.969 3.211c.136-.801.55-1.507 1.23-2.102C3.895.5 4.73.19 5.677.187c.876-.003 1.678.265 2.384.795.661.528 1.102 1.156 1.33 1.882l.92 3.044.895-3.03c.232-.752.68-1.39 1.338-1.905.684-.537 1.48-.81 2.367-.813.944-.003 1.788.308 2.508.924.67.588 1.077 1.282 1.215 2.07l.252 1.48c.359-.671.802-1.295 1.328-1.869C21.891.938 24.06.007 26.663 0c2.577-.007 4.746.926 6.448 2.775.05.054.098.108.146.163.09-.765.402-1.426.917-1.929.61-.594 1.408-.908 2.309-.91 1.053-.004 2.001.473 2.67 1.343l3.72 4.901-.008-2.953c-.003-.969.322-1.801.94-2.406.608-.595 1.405-.91 2.305-.913.84-.003 1.593.268 2.186.784.553-.436 1.267-.668 2.094-.67l5.228-.016c.587-.002 1.13.133 1.605.393.51-.346 1.111-.527 1.767-.529 1.12-.003 2.072.471 2.682 1.335l1.672 2.405 1.65-2.404c.611-.876 1.562-1.357 2.682-1.36.896-.003 1.691.33 2.3.962.587.612.898 1.384.9 2.233.003.699-.197 1.34-.592 1.906l-3.667 5.178.015 5.082c.003.862-.285 1.623-.832 2.202-.309.359-1.07 1.008-2.414 1.012-1.277.003-2.047-.57-2.468-1.053-.51-.53-.793-1.28-.796-2.142l-.014-5.082" transform="translate(-30 -242) translate(16 226) translate(14.732 16)"/>
                    <path fill="#7F3F98" d="M29.01 12.29c-.55.75-1.305 1.116-2.309 1.12-1.016.002-1.752-.35-2.312-1.102-.537-.731-.811-1.704-.815-2.891-.003-1.17.27-2.136.816-2.87.572-.776 1.3-1.138 2.288-1.141.99-.003 1.718.355 2.297 1.13.548.729.827 1.693.83 2.863.004 1.187-.264 2.161-.795 2.892M69.372 1.549c-.446-.464-1.032-.708-1.694-.706-.85.003-1.538.346-1.993.998l-2.337 3.403-2.36-3.395c-.455-.644-1.145-.983-1.995-.98-.662.001-1.247.249-1.69.715-.011.012-.018.026-.03.038-.43-.402-.995-.62-1.653-.618l-5.228.015c-.995.003-1.728.418-2.128 1.152-.111-.222-.247-.428-.427-.603-.45-.436-1.047-.665-1.724-.663-.678.002-1.273.235-1.722.674-.46.45-.691 1.059-.69 1.808l.016 5.451-5.229-6.888c-.513-.668-1.205-1.02-2.003-1.017-.678.002-1.274.234-1.725.672-.462.452-.695 1.06-.692 1.81l.006 2.373c-.378-.889-.9-1.71-1.58-2.448C30.96 1.67 28.998.828 26.666.835c-2.359.006-4.321.846-5.833 2.494-1.25 1.36-1.973 3.022-2.176 4.944l-.846-4.975c-.105-.596-.417-1.125-.936-1.58-.564-.482-1.223-.725-1.961-.723-.695.002-1.318.215-1.852.635-.52.407-.874.904-1.052 1.483l-1.69 5.718-1.726-5.717c-.178-.565-.52-1.053-1.036-1.466-.556-.418-1.188-.629-1.877-.627-.74.003-1.39.243-1.93.716-.531.465-.853 1.005-.955 1.609L.868 15.084c-.022.132-.031.29-.031.496.002.67.24 1.254.69 1.688.443.43 1.02.656 1.672.654 1.372-.004 2.27-.804 2.466-2.194l.685-4.81 1.5 5.17c.348 1.173 1.234 1.817 2.495 1.813 1.26-.003 2.142-.652 2.486-1.832l1.47-5.173.711 4.803c.203 1.39 1.107 2.186 2.48 2.182.65-.002 1.227-.231 1.668-.663.446-.438.681-1.023.68-1.693-.001-.2-.012-.36-.034-.495l-.234-1.371c.344.664.77 1.283 1.293 1.849 1.522 1.647 3.49 2.479 5.85 2.472 2.374-.007 4.342-.85 5.847-2.507.66-.727 1.166-1.54 1.533-2.425l.007 2.31c.002.75.238 1.357.7 1.805.451.436 1.047.665 1.725.663.678-.002 1.273-.235 1.721-.674.46-.45.692-1.058.69-1.808l-.016-5.37 5.23 6.807c.512.668 1.204 1.02 2.002 1.017.68-.002 1.276-.234 1.725-.672.181-.176.316-.384.427-.608.104.17.224.332.374.474.463.439 1.064.67 1.739.668l5.44-.016c.696-.002 1.296-.258 1.722-.728.397-.42.606-.961.604-1.564-.002-.594-.19-1.115-.562-1.548l-.032-.036c-.44-.457-1.043-.697-1.746-.695l-3.063.009-.005-1.527 2.62-.008c.704-.002 1.313-.252 1.766-.727.397-.42.606-.962.604-1.565-.002-.599-.219-1.147-.628-1.585-.297-.318-.843-.696-1.754-.694l-2.62.008-.005-1.4 2.873-.009c.657-.002 1.226-.232 1.646-.651l3.665 5.114.015 5.348c.002.653.209 1.2.59 1.597.306.35.874.769 1.835.766.96-.003 1.525-.423 1.807-.75.403-.426.606-.973.604-1.627l-.015-5.348 3.817-5.391c.295-.423.444-.903.443-1.427-.002-.63-.233-1.203-.668-1.657" transform="translate(-30 -242) translate(16 226) translate(14.732 16)"/>
                    <path fill="#FFF" d="M19.003 15.527c0 .45-.142.814-.43 1.095-.287.281-.649.423-1.084.424-.956.003-1.505-.486-1.648-1.468l-1.269-8.554h-.042l-2.504 8.818c-.237.814-.798 1.222-1.684 1.225-.885.002-1.448-.403-1.69-1.216L6.098 7.05h-.042L4.836 15.61c-.138.982-.684 1.474-1.64 1.477-.436.001-.798-.138-1.087-.418-.289-.28-.434-.643-.435-1.092 0-.154.006-.273.02-.357L3.621 3.48c.069-.407.296-.779.682-1.116.385-.338.845-.507 1.38-.509.505-.001.962.152 1.37.459.367.293.614.643.741 1.049l2.512 8.32h.042l2.464-8.335c.125-.406.38-.76.766-1.064.386-.302.831-.454 1.337-.455.534-.002 1.006.172 1.414.521.367.322.585.685.657 1.092L18.98 15.17c.014.084.022.203.023.357" transform="translate(-30 -242) translate(16 226) translate(14.732 16)"/>
                    <path stroke="#FFF" stroke-width=".5" d="M19.003 15.527c0 .45-.142.814-.43 1.095-.287.281-.649.423-1.084.424-.956.003-1.505-.486-1.648-1.468l-1.269-8.554h-.042l-2.504 8.818c-.237.814-.798 1.222-1.684 1.225-.885.002-1.448-.403-1.69-1.216L6.098 7.05h-.042L4.836 15.61c-.138.982-.684 1.474-1.64 1.477-.436.001-.798-.138-1.087-.418-.289-.28-.434-.643-.435-1.092 0-.154.006-.273.02-.357L3.621 3.48c.069-.407.296-.779.682-1.116.385-.338.845-.507 1.38-.509.505-.001.962.152 1.37.459.367.293.614.643.741 1.049l2.512 8.32h.042l2.464-8.335c.125-.406.38-.76.766-1.064.386-.302.831-.454 1.337-.455.534-.002 1.006.172 1.414.521.367.322.585.685.657 1.092L18.98 15.17c.014.084.022.203.023.357z" transform="translate(-30 -242) translate(16 226) translate(14.732 16)"/>
                    <path fill="#FFF" d="M30.643 9.396c-.004-1.36-.337-2.48-.998-3.361-.732-.98-1.722-1.467-2.969-1.464-1.248.004-2.234.498-2.96 1.48-.657.886-.983 2.008-.979 3.368.004 1.374.33 2.501.977 3.382.718.965 1.714 1.446 2.99 1.443 1.275-.004 2.27-.49 2.981-1.46.642-.885.962-2.014.958-3.388m3.31-.01c.006 2.201-.665 4.043-2.012 5.526-1.346 1.483-3.09 2.227-5.229 2.233-2.125.007-3.869-.728-5.231-2.203-1.363-1.475-2.047-3.313-2.054-5.513-.006-2.215.668-4.06 2.022-5.537 1.354-1.475 3.093-2.216 5.219-2.223 2.096-.006 3.834.74 5.21 2.235 1.377 1.497 2.068 3.324 2.074 5.483" transform="translate(-30 -242) translate(16 226) translate(14.732 16)"/>
                    <path stroke="#FFF" stroke-linecap="round" stroke-linejoin="round" stroke-width=".5" d="M30.643 9.396c-.004-1.36-.337-2.48-.998-3.361-.732-.98-1.722-1.467-2.969-1.464-1.248.004-2.234.498-2.96 1.48-.657.886-.983 2.008-.979 3.368.004 1.374.33 2.501.977 3.382.718.965 1.714 1.446 2.99 1.443 1.275-.004 2.27-.49 2.981-1.46.642-.885.962-2.014.958-3.388zm3.31-.01c.006 2.201-.665 4.043-2.012 5.526-1.346 1.483-3.09 2.227-5.229 2.233-2.125.007-3.869-.728-5.231-2.203-1.363-1.475-2.047-3.313-2.054-5.513-.006-2.215.668-4.06 2.022-5.537 1.354-1.475 3.093-2.216 5.219-2.223 2.096-.006 3.834.74 5.21 2.235 1.377 1.497 2.068 3.324 2.074 5.483z" transform="translate(-30 -242) translate(16 226) translate(14.732 16)"/>
                    <path fill="#FFF" d="M47.735 15.319c.002.518-.145.922-.441 1.21-.296.288-.676.433-1.142.435-.537.001-.982-.23-1.336-.69l-6.738-8.77.023 7.843c.001.518-.145.922-.44 1.21-.293.288-.672.433-1.136.434-.464.002-.844-.141-1.14-.428-.296-.286-.445-.689-.446-1.207l-.034-11.944c-.002-.518.145-.922.44-1.21.296-.288.677-.433 1.143-.434.536-.002.981.228 1.336.69l6.738 8.875-.023-7.948c-.002-.519.145-.922.439-1.21.294-.289.673-.434 1.137-.435.464-.001.843.142 1.14.428.296.286.444.69.446 1.208l.034 11.943z" transform="translate(-30 -242) translate(16 226) translate(14.732 16)"/>
                    <path stroke="#FFF" stroke-width=".5" d="M47.735 15.319c.002.518-.145.922-.441 1.21-.296.288-.676.433-1.142.435-.537.001-.982-.23-1.336-.69l-6.738-8.77.023 7.843c.001.518-.145.922-.44 1.21-.293.288-.672.433-1.136.434-.464.002-.844-.141-1.14-.428-.296-.286-.445-.689-.446-1.207l-.034-11.944c-.002-.518.145-.922.44-1.21.296-.288.677-.433 1.143-.434.536-.002.981.228 1.336.69l6.738 8.875-.023-7.948c-.002-.519.145-.922.439-1.21.294-.289.673-.434 1.137-.435.464-.001.843.142 1.14.428.296.286.444.69.446 1.208l.034 11.943z" transform="translate(-30 -242) translate(16 226) translate(14.732 16)"/>
                    <path fill="#FFF" d="M57.348 15.354c.001.393-.124.723-.376.99-.28.309-.652.464-1.116.465l-5.44.016c-.463.001-.85-.145-1.16-.438-.31-.294-.466-.672-.467-1.134l-.033-11.565c-.004-1.22.542-1.831 1.639-1.834l5.061-.015c.478-.002.858.144 1.14.438.24.28.36.616.361 1.008.001.393-.124.723-.376.99-.28.309-.652.464-1.116.465l-3.544.01.009 3.071 3.457-.01c.492-.001.872.141 1.14.428.267.287.402.626.403 1.019.001.392-.124.722-.376.99-.295.308-.681.463-1.159.465l-3.457.01.01 3.196 3.9-.011c.477-.002.857.144 1.139.438.24.28.36.616.361 1.008" transform="translate(-30 -242) translate(16 226) translate(14.732 16)"/>
                    <path stroke="#FFF" stroke-width=".5" d="M57.348 15.354c.001.393-.124.723-.376.99-.28.309-.652.464-1.116.465l-5.44.016c-.463.001-.85-.145-1.16-.438-.31-.294-.466-.672-.467-1.134l-.033-11.565c-.004-1.22.542-1.831 1.639-1.834l5.061-.015c.478-.002.858.144 1.14.438.24.28.36.616.361 1.008.001.393-.124.723-.376.99-.28.309-.652.464-1.116.465l-3.544.01.009 3.071 3.457-.01c.492-.001.872.141 1.14.428.267.287.402.626.403 1.019.001.392-.124.722-.376.99-.295.308-.681.463-1.159.465l-3.457.01.01 3.196 3.9-.011c.477-.002.857.144 1.139.438.24.28.36.616.361 1.008z" transform="translate(-30 -242) translate(16 226) translate(14.732 16)"/>
                    <path fill="#FFF" d="M69.203 3.209c0 .35-.097.666-.293.947L64.942 9.76l.016 5.615c.002.434-.124.785-.376 1.052-.28.324-.68.486-1.2.487-.52.002-.921-.158-1.203-.48-.254-.266-.382-.616-.383-1.05l-.016-5.615-4-5.581c-.198-.28-.297-.595-.298-.946-.001-.42.142-.781.429-1.084.287-.302.648-.454 1.084-.455.576-.002 1.013.207 1.309.627l3.048 4.386 3.023-4.404c.294-.42.73-.632 1.305-.634.436-.001.799.149 1.088.449.288.3.434.661.435 1.082" transform="translate(-30 -242) translate(16 226) translate(14.732 16)"/>
                    <path stroke="#FFF" stroke-width=".5" d="M69.203 3.209c0 .35-.097.666-.293.947L64.942 9.76l.016 5.615c.002.434-.124.785-.376 1.052-.28.324-.68.486-1.2.487-.52.002-.921-.158-1.203-.48-.254-.266-.382-.616-.383-1.05l-.016-5.615-4-5.581c-.198-.28-.297-.595-.298-.946-.001-.42.142-.781.429-1.084.287-.302.648-.454 1.084-.455.576-.002 1.013.207 1.309.627l3.048 4.386 3.023-4.404c.294-.42.73-.632 1.305-.634.436-.001.799.149 1.088.449.288.3.434.661.435 1.082z" transform="translate(-30 -242) translate(16 226) translate(14.732 16)"/>
                </g>
            </g>
        </g>
    </g>
</svg>
