<?xml version="1.0" standalone="yes"?>
<svg xmlns="http://www.w3.org/2000/svg" width="3509" height="2481">
<!--<path style="fill:#ffffff; stroke:none;" d="M0 0L0 1263L1 1263C1.02106 1231.2 10.5266 1197.36 15.7531 1166C26.1904 1103.38 36.8454 1040.74 46.5756 978C55.2425 922.118 58.1128 858.851 89.0532 810C100.375 792.124 114.689 776.058 131 762.615C211.534 696.244 328.236 706.284 401 779L402 779C468.073 712.927 568.89 696.67 650 745.601C666.888 755.789 683.997 769.247 696 785C704.684 782.12 712.393 774.405 720 769.333C734.038 759.975 748.651 751.356 764 744.309C818.476 719.295 880.116 707.988 940 712.089C976.722 714.605 1013.72 722.001 1048 735.601C1061.02 740.765 1073.56 746.838 1086 753.259C1090.25 755.453 1096.09 760.838 1101 760.837C1107.43 760.836 1116.72 749.942 1122 746.344C1136.59 736.414 1152.18 728.717 1169 723.344C1243.22 699.632 1333.8 727.239 1376 795L1377 795C1401.15 752.609 1449.81 724.352 1497 716.435C1540.58 709.124 1586.92 715.065 1631 713.985C1725.2 711.678 1819.71 713 1914 713C1970.91 713 2031.99 724.424 2069 773C2078.14 766.564 2085.14 757.332 2094 750.424C2114.66 734.322 2138.41 722.518 2164 716.651C2242.9 698.565 2324.93 734.347 2363.69 806C2376.72 830.096 2383.05 856.828 2384.91 884C2388.56 937.281 2361.91 980.307 2332.72 1022C2315.42 1046.72 2298.01 1071.37 2280.58 1096C2271.43 1108.92 2259.76 1121.91 2252.57 1136C2249.08 1142.84 2251 1153.5 2251 1161L2251 1217C2251 1240.68 2253.07 1265.43 2250.83 1289C2246.78 1331.54 2229.47 1370.03 2199.91 1400.99C2152.25 1450.89 2074.05 1464.61 2010 1443C1995.2 1438 1980.85 1430.85 1968 1421.97C1963.48 1418.86 1955.65 1409.81 1950 1409.95C1946.35 1410.03 1942.78 1413.83 1940 1415.85C1933.31 1420.7 1926.31 1425.36 1919 1429.22C1895.54 1441.6 1870.47 1451.34 1844 1454.71C1820.04 1457.77 1795.13 1456 1771 1456C1722.98 1456 1675.06 1455 1627 1455C1574.08 1455 1515.37 1461.59 1465 1442.57C1442.53 1434.09 1421.34 1420.54 1404 1403.96C1395.39 1395.73 1387.44 1380.3 1377 1375C1338.28 1444.47 1243.36 1469.46 1171 1446.97C1154.63 1441.89 1139.24 1434.54 1125 1425C1119.67 1421.43 1110.37 1410.91 1104 1410.71C1098.53 1410.54 1091.61 1416.58 1087 1419.14C1075.17 1425.7 1062.61 1431.3 1050 1436.19C1013.85 1450.19 974.705 1458.27 936 1459.96C892.3 1461.87 847.83 1456.97 806 1443.97C791.32 1439.41 776.9 1433.78 763 1427.22C757.386 1424.57 749.203 1417.94 743 1417.7C737.344 1417.48 730.487 1425.02 726 1428C714.558 1435.58 702.017 1441.95 689 1446.33C633.753 1464.93 563.075 1460.27 517 1421L516 1421C469.151 1458.15 402.309 1466.05 346 1449.58C332.752 1445.7 319.974 1440.27 308 1433.42C303.324 1430.75 295.392 1423.13 290 1423.13C282.404 1423.13 269.981 1435.16 263 1438.74C244.774 1448.08 224.306 1454.12 204 1456.71C108.353 1468.92 1.06858 1398.55 1 1295L0 1295L0 2481L3509 2481L3509 1210L3508 1210C3507.85 1228.47 3499.15 1247.12 3492.4 1264C3482.18 1289.56 3472.21 1315.27 3462.42 1341C3425.29 1438.61 3386.53 1535.61 3348.81 1633C3331.94 1676.55 3318.68 1739.66 3272 1760.69C3250.14 1770.53 3225.36 1769 3202 1769L3096 1769L2703 1769L2294 1769C2251.5 1769 2195.85 1772.92 2177.06 1724C2174.39 1717.04 2172.37 1709.48 2172.04 1702C2171.07 1679.92 2179.51 1659.35 2186.95 1639C2196.19 1613.72 2205.28 1588.36 2214.31 1563C2248.97 1465.6 2286.24 1368.94 2319.33 1271C2334.31 1226.68 2349.26 1160.38 2396 1139.31C2418.23 1129.29 2443.26 1131 2467 1131L2577 1131L2981 1131L3389 1131C3430.98 1131 3478.45 1127.51 3501.51 1171C3505.36 1178.26 3507.83 1186.78 3508 1195L3509 1195L3509 0L0 0z"/>-->
<path style="fill:#f48120; stroke:none;" d="M696 785C685.419 764.603 656.972 747.764 637 737.753C579.213 708.789 507.744 709.53 451 740.694C433.843 750.117 413.43 762.773 402 779L401 779C388.558 761.349 365.972 748.239 347 738.753C271.147 700.827 176.387 714.692 116.039 775.039C69.8118 821.267 62.8497 878.798 52.5864 940C39.6261 1017.28 27.5467 1094.72 14.5864 1172C2.05264 1246.74 -14.4703 1322.01 34.6296 1388C43.6481 1400.12 54.1423 1410.96 66 1420.33C113.094 1457.56 177.951 1467.28 235 1450.28C248.306 1446.31 260.993 1440.65 273 1433.72C277.562 1431.08 284.62 1423.87 290 1423.87C295.183 1423.87 302.535 1430.87 307 1433.42C318.394 1439.94 330.463 1445.08 343 1448.97C385.808 1462.28 434.315 1460.93 476 1444.2C489.308 1438.86 506.327 1431.89 516 1421L517 1421C526.837 1432.9 546.697 1440.69 561 1445.66C604.168 1460.64 649.96 1460.64 693 1445.31C704.914 1441.06 716.47 1434.97 727 1428C731.2 1425.21 737.734 1418.06 743 1418.21C749.159 1418.39 757.396 1425.12 763 1427.69C776.655 1433.96 790.646 1439.51 805 1443.97C847.501 1457.18 892.614 1461.9 937 1459.96C975.705 1458.27 1014.85 1450.19 1051 1436.19C1063.61 1431.3 1076.17 1425.7 1088 1419.14C1092.2 1416.81 1099 1410.86 1104 1411.24C1110.34 1411.73 1119.62 1422.08 1125 1425.67C1138.63 1434.75 1153.4 1441.67 1169 1446.66C1224.61 1464.42 1287.66 1454.79 1335 1420.71C1350.25 1409.73 1370.15 1393.07 1377 1375C1386.63 1382.39 1393.23 1394.42 1402 1402.99C1418.54 1419.15 1438.66 1432.13 1460 1440.99C1509.4 1461.49 1567.65 1455 1620 1455C1670.05 1455 1719.98 1456 1770 1456C1795.03 1456 1821.2 1458.16 1846 1454.57C1871.87 1450.83 1895.88 1441.68 1919 1429.74C1926.32 1425.96 1933.3 1421.36 1940 1416.57C1942.75 1414.61 1946.4 1410.65 1950 1410.6C1955.5 1410.51 1963.53 1419.62 1968 1422.66C1980.87 1431.4 1995.22 1438.46 2010 1443.33C2074.46 1464.55 2149.77 1450.83 2198.96 1402.91C2229.6 1373.06 2246.81 1332.17 2250.83 1290C2253.17 1265.45 2251 1239.67 2251 1215L2251 1161C2251 1153.75 2249.19 1143.62 2252.57 1137C2259.76 1122.91 2271.43 1109.92 2280.58 1097C2323.45 1036.43 2383.07 974.237 2384.99 896C2387.77 782.222 2285.42 695.744 2174 714.435C2131.88 721.501 2098.72 743.282 2069 773C2063.18 761.778 2050.1 752.818 2040 745.579C2002.43 718.659 1960.88 713 1916 713C1820.71 713 1725.2 711.653 1630 713.985C1588.83 714.994 1547.01 711.26 1506 715.075C1469.27 718.492 1434.77 734.92 1407 758.729C1396.1 768.075 1382.25 781.338 1377 795C1329.51 728.882 1246.39 698.298 1168 723.344C1151.58 728.59 1136.29 736.039 1122 745.67C1116.62 749.297 1107.72 759.736 1101.42 760.493C1097.78 760.931 1093.01 756.544 1090 754.862C1081.3 750.008 1072.14 745.399 1063 741.424C1033.73 728.689 1002.69 719.551 971 715.282C900.578 705.796 827.815 714.548 763 744.309C738.966 755.344 719.261 773.416 696 785z"/>
<path style="fill:#ba605c; stroke:none;" d="M905 815L905 816L916 816L905 815z"/>
<path style="fill:#804097; stroke:none;" d="M665 1047L664 1047C660.696 1006.55 650.698 964.923 643.261 925C638.949 901.855 638.163 878.71 623.522 859C587.769 810.871 513.807 807.598 474.289 853C457.835 871.905 452.28 895.498 445.573 919C438.134 945.06 430.01 970.942 422.573 997C416.274 1019.07 404.995 1043.12 403 1066L401 1066C399.971 1043.49 387.714 1017.53 381.025 996C372.662 969.082 364.82 941.999 356.72 915C349.792 891.911 343.844 869.123 326.91 851.001C286.669 807.935 213.067 812.934 179.209 861C166.127 879.572 163.667 901.105 160.718 923C157.931 943.689 154.039 964.413 150.586 985C140.475 1045.3 131.098 1105.72 120.919 1166C115.318 1199.17 108.178 1232.63 104.184 1266C101.441 1288.93 106.519 1313.55 122.174 1331C149.55 1361.52 206.371 1363.02 234.91 1332.99C253.504 1313.42 255.618 1286.35 259.271 1261C265.281 1219.29 273.686 1176.99 277 1135L278 1135C280.329 1150.77 286.744 1166.72 291.279 1182C298.877 1207.6 306.249 1233.31 313.573 1259C320.03 1281.65 324.157 1308.33 339.465 1327C365.638 1358.93 424.542 1364.46 456 1336.82C478.315 1317.21 483.715 1288.46 491.151 1261C502.622 1218.65 517.197 1176.76 527 1134L528 1134C528.037 1147.56 531.635 1161.6 533.704 1175C538.227 1204.3 542.182 1233.71 546.704 1263C550.504 1287.62 552.498 1313.21 571.015 1332C605.377 1366.86 673.241 1358.28 694.511 1313C707.513 1285.32 699.395 1251.63 694 1223L695 1223C704.705 1246.3 722.342 1267.34 740 1285C832.829 1377.83 997.798 1382.2 1092 1288C1109.85 1270.15 1125.4 1250.24 1137.46 1228C1141.81 1219.97 1147.38 1211.07 1149 1202L1150 1202C1150 1221.36 1150.77 1240.71 1151 1260C1151.23 1279.59 1150.02 1298.4 1160.45 1316C1187.49 1361.62 1264.39 1364.55 1291.66 1317C1305.13 1293.53 1302 1267 1302 1241L1302 1105C1344.62 1154.25 1382.55 1209.06 1421.87 1261C1439.6 1284.41 1456.92 1314.99 1480 1333.33C1515.06 1361.2 1577.61 1355.94 1597 1311C1608.35 1327.68 1624.03 1339.86 1644 1344.33C1663.94 1348.8 1686.65 1346 1707 1346C1740.68 1346 1774.4 1345.4 1808 1345C1839.57 1344.63 1866.34 1346.82 1889.96 1322C1915.11 1295.57 1913.77 1248.19 1888.71 1222.17C1874.95 1207.88 1853.59 1200.8 1834 1201C1802.06 1201.33 1770.01 1202 1738 1202L1738 1153L1814 1153C1835.55 1153 1855.28 1149.82 1872 1134.83C1904.6 1105.59 1902.26 1047.95 1866 1022.57C1838.12 1003.05 1802.84 1010 1771 1010C1762.49 1010 1747.97 1012.81 1740.15 1009.4C1736.49 1007.8 1737.01 1003.31 1737 1000C1736.98 990.608 1734.83 978.116 1737.32 969.059C1738.55 964.574 1743.23 965.008 1747 965L1775 965C1812.59 965 1849.01 970.149 1880 945C1887.09 959.913 1899.52 973.58 1909.14 987C1928.01 1013.33 1946.91 1039.62 1965.71 1066C1974.38 1078.17 1989.58 1092.88 1994.41 1107C1998.57 1119.13 1995 1138.17 1995 1151L1995 1241C1995 1278.16 1993.08 1314.48 2028 1337.64C2034.09 1341.68 2040.97 1344.59 2048 1346.57C2081.6 1356.04 2124.08 1342.79 2139.68 1310C2148.76 1290.9 2147 1270.54 2147 1250L2147 1153C2147 1138.81 2144 1120.76 2147.42 1107C2150.97 1092.72 2167.62 1077.06 2175.98 1065C2200.59 1029.46 2225.93 994.416 2250.72 959C2273.18 926.921 2293.72 891.71 2271.57 853C2250.17 815.597 2198.95 804.418 2163 827.699C2145.58 838.981 2135.06 859.246 2123.66 876C2106.52 901.176 2084.02 926.471 2071 954C2049.98 929.334 2032.59 899.805 2014.34 873C2005.7 860.3 1997.51 845.498 1986 835.174C1966.21 817.427 1935.24 812.111 1910 819.721C1896.93 823.663 1888.76 832.425 1878 840C1865.9 819.081 1830.3 821 1810 821C1756.73 821 1700.94 816.505 1648 822.174C1628.44 824.268 1604.31 836.716 1597 856L1595 856C1571.88 802.406 1487.23 807.541 1461.31 855C1449.43 876.764 1453 903.106 1453 927L1453 1067C1409.26 1016.45 1370.99 959.487 1330.87 906C1312.32 881.27 1293.97 848.209 1268 830.749C1221.28 799.336 1151.57 830.266 1149.04 888C1147.85 915.053 1150 942.819 1150 970L1148 970C1145.92 953.317 1131.24 934.373 1121.71 921C1089.22 875.41 1044.04 840.804 990 825.291C865.15 789.448 731.015 850.668 682.797 973C673.784 995.867 665.069 1022.15 665 1047z"/>
<path style="fill:#ba605c; stroke:none;" d="M918 815L918 816L930 816L918 815M1928 816L1928 817L1940 817L1928 816M1220 818L1220 819L1231 819L1220 818M540 820L540 821L554 821L540 820z"/>
<path style="fill:#d7713e; stroke:none;" d="M1769 820L1769 821L1833 821L1813 820L1769 820z"/>
<path style="fill:#9d507a; stroke:none;" d="M247 821L247 822L265 822L247 821z"/>
<path style="fill:#ba605c; stroke:none;" d="M974.667 821.333L975.333 821.667L974.667 821.333z"/>
<path style="fill:#9d507a; stroke:none;" d="M1653 821L1653 822L1682 822L1653 821z"/>
<path style="fill:#ba605c; stroke:none;" d="M1640.67 823.333L1641.33 823.667L1640.67 823.333z"/>
<path style="fill:#a070b1; stroke:none;" d="M896 841L896 842L900 842L896 841z"/>
<path style="fill:#c0a0cb; stroke:none;" d="M900 841L900 842L904 842L900 841z"/>
<path style="fill:#ffffff; stroke:none;" d="M904 841.424C882.95 844.188 862.561 845.731 842 852.039C811.859 861.286 783.661 879.363 761 901.039C644.879 1012.12 668.848 1232.05 813 1307.68C853.898 1329.14 904.621 1334.36 950 1328.71C971.376 1326.05 993.382 1320.67 1013 1311.69C1124.84 1260.48 1166.06 1127.58 1137.62 1014C1112.55 913.844 1011.15 827.357 904 841.424z"/>
<path style="fill:#c0a0cb; stroke:none;" d="M930 841L930 842L938 842L930 841M2201 841L2201 842L2205 842L2201 841z"/>
<path style="fill:#ffffff; stroke:none;" d="M2071 999C2044.23 967.592 2022.46 929.991 1999.03 896C1988.78 881.134 1978.58 859.722 1963 849.951C1922.04 824.271 1874.17 862.83 1887.72 908C1893.21 926.308 1909.05 942.617 1920 958C1943.29 990.725 1966.74 1023.35 1990.14 1056C1999.22 1068.67 2016.17 1085.01 2020.49 1100C2024.49 1113.89 2021 1133.54 2021 1148L2021 1251C2021 1274.41 2018.41 1300.82 2041 1315.45C2065.45 1331.29 2105.64 1323.95 2117.66 1296C2124.58 1279.92 2121 1258.16 2121 1241L2121 1146C2121 1131.49 2118.41 1114.21 2121.28 1100C2122.4 1094.45 2127.21 1089.55 2130.34 1085C2137.51 1074.57 2145.02 1064.37 2152.28 1054C2178.01 1017.25 2203.76 980.486 2229.86 944C2247.46 919.393 2267.91 889.122 2245.47 860C2228.96 838.572 2193.85 834.87 2173 852.326C2158.05 864.841 2147.97 886.046 2136.97 902C2115.05 933.81 2089.79 965.248 2071 999z"/>
<path style="fill:#c0a0cb; stroke:none;" d="M2209 841L2209 842L2213 842L2209 841z"/>
<path style="fill:#a070b1; stroke:none;" d="M943 842L943 843L948 843L943 842z"/>
<path style="fill:#c0a0cb; stroke:none;" d="M2193.67 842.333L2194.33 842.667L2193.67 842.333z"/>
<path style="fill:#b894c5; stroke:none;" d="M2217.67 842.333L2218.33 842.667L2217.67 842.333z"/>
<path style="fill:#b088be; stroke:none;" d="M952 843L952 844L955 844L952 843z"/>
<path style="fill:#c0a0cb; stroke:none;" d="M1520 843L1520 844L1525 844L1520 843z"/>
<path style="fill:#e0d0e5; stroke:none;" d="M1525 843L1525 844L1535 844L1525 843z"/>
<path style="fill:#c8acd2; stroke:none;" d="M1920.67 843.333L1921.33 843.667L1920.67 843.333z"/>
<path style="fill:#b894c5; stroke:none;" d="M1946.67 843.333L1947.33 843.667L1946.67 843.333z"/>
<path style="fill:#d0b8d8; stroke:none;" d="M2189.67 843.333L2190.33 843.667L2189.67 843.333z"/>
<path style="fill:#b088be; stroke:none;" d="M872 844L872 845L875 845L872 844z"/>
<path style="fill:#d0b8d8; stroke:none;" d="M957 844L957 845L960 845L957 844z"/>
<path style="fill:#c0a0cb; stroke:none;" d="M1216 844L1216 845L1220 845L1216 844z"/>
<path style="fill:#ffffff; stroke:none;" d="M1276 1029C1298.02 1054.28 1317.19 1082.45 1337.65 1109C1374.83 1157.25 1412.1 1205.44 1448.87 1254C1469.9 1281.77 1492.56 1327.7 1533 1324.91C1539.07 1324.49 1545.32 1323.1 1551 1320.93C1588.46 1306.67 1579 1261.15 1579 1230L1579 982C1579 954.857 1580.74 927.004 1578.17 900C1577.17 889.523 1578.33 880.035 1574.05 870C1558.9 834.558 1500.98 835.197 1483.78 868C1476 882.848 1478 900.804 1478 917C1478 948.044 1479 979.007 1479 1010L1479 1144C1418.74 1069.24 1362.24 990.824 1304.63 914C1284.55 887.23 1261.47 840.398 1222 844.17C1216.01 844.742 1209.57 845.541 1204 847.877C1167.56 863.139 1175 905.985 1175 938C1175 1019.99 1176 1101.96 1176 1184L1176 1254C1176 1268.81 1174.78 1283.96 1180.45 1298C1195.23 1334.55 1253.3 1334.79 1271.11 1301C1278.5 1286.97 1276 1269.29 1276 1254L1276 1162L1276 1029z"/>
<path style="fill:#d0b8d8; stroke:none;" d="M1515 844L1515 845L1518 845L1515 844z"/>
<path style="fill:#b088be; stroke:none;" d="M1540.67 844.333L1541.33 844.667L1540.67 844.333z"/>
<path style="fill:#d0b8d8; stroke:none;" d="M868.667 845.333L869.333 845.667L868.667 845.333z"/>
<path style="fill:#c0a0cb; stroke:none;" d="M1211.67 845.333L1212.33 845.667L1211.67 845.333z"/>
<path style="fill:#e8dcec; stroke:none;" d="M538 846L538 847L556 847L538 846z"/>
<path style="fill:#b894c5; stroke:none;" d="M862 846L862 847L865 847L862 846z"/>
<path style="fill:#c0a0cb; stroke:none;" d="M968 846L968 847L971 847L968 846z"/>
<path style="fill:#a070b1; stroke:none;" d="M1666 846L1666 847L1750 847L1724 846L1666 846z"/>
<path style="fill:#c0a0cb; stroke:none;" d="M1750 846L1750 847L1830 847L1805 846L1750 846z"/>
<path style="fill:#ffffff; stroke:none;" d="M268 1013L269 1013C291.534 1092.4 316.805 1171.2 337.884 1251C346.343 1283.02 353.246 1323.57 393 1327.83C399.422 1328.51 406.628 1328.4 413 1327.41C451.936 1321.33 456.996 1287.26 466.14 1255L535 1012L536 1012C536.132 1027.92 540.482 1044.25 542.714 1060C548.155 1098.37 553.813 1136.71 559.725 1175C563.838 1201.64 567.625 1228.33 571.573 1255C573.566 1268.47 574.129 1283.09 578.699 1296C591.676 1332.67 649.68 1340.05 669.662 1305C680.078 1286.73 675.316 1265.37 671.449 1246C668.222 1229.84 665.958 1213.29 663.424 1197C652.624 1127.53 639.566 1058.35 628.08 989C624.378 966.648 620.48 944.359 616.753 922C614.594 909.044 613.766 894.95 608.11 883C593.348 851.813 552.471 838.527 521 850.618C482.438 865.433 475.532 906.786 465.715 942C452.093 990.855 437.218 1039.49 422.435 1088C415.688 1110.14 411.763 1135 402 1156C382.727 1081.7 357.626 1008.52 335.569 935C325.395 901.09 318.742 864.52 281 851.09C248.022 839.355 207.905 853.588 194.012 887C189.537 897.761 188.821 910.523 186.92 922L176.92 983C166.274 1047.27 155.112 1111.56 145.573 1176C142.063 1199.71 137.7 1223.37 133.753 1247C131.341 1261.44 127.565 1277.36 130.669 1292C139.898 1335.52 208.556 1343.62 225.384 1301C230.347 1288.43 231.357 1274.28 233.271 1261C236.775 1236.68 240.074 1212.33 243.425 1188C248.801 1148.96 254.651 1110 260.271 1071C263 1052.06 267.842 1032.14 268 1013z"/>
<path style="fill:#c0a0cb; stroke:none;" d="M264 847L264 848L267 848L264 847z"/>
<path style="fill:#d0b8d8; stroke:none;" d="M559 847L559 848L562 848L559 847z"/>
<path style="fill:#c0a0cb; stroke:none;" d="M858.667 847.333L859.333 847.667L858.667 847.333z"/>
<path style="fill:#c8acd2; stroke:none;" d="M1650 847L1650 848L1654 848L1650 847z"/>
<path style="fill:#ffffff; stroke:none;" d="M1712 1128C1740.69 1128 1769.39 1127.34 1798 1127C1813.62 1126.82 1830.56 1129.43 1845 1122.19C1876.65 1106.33 1877.46 1055.65 1845 1039.82C1832.97 1033.95 1818.98 1035 1806 1035L1744 1035C1737.39 1035 1713.73 1038.59 1711.43 1030.94C1708.42 1020.89 1711 1006.49 1711 996L1711 957C1711 952.715 1709.55 945.034 1712.03 941.318C1713.92 938.484 1718.05 939.006 1721 939L1746 939L1808 939C1820.46 939 1833.39 940.111 1845 934.677C1877.29 919.556 1879.29 866.476 1846 851.312C1834.78 846.203 1823.01 847 1811 847L1760 847L1676 847C1660.54 847 1643.18 845.916 1630 855.613C1606.53 872.879 1611 904.486 1611 930C1611 992.672 1611.25 1055.41 1612 1118C1612.51 1160.99 1612 1204.01 1612 1247C1612 1267.66 1609.24 1289.77 1625.17 1305.83C1643.94 1324.74 1671.8 1320 1696 1320L1796 1320C1813.45 1320 1833.05 1322.51 1850 1317.84C1878.12 1310.1 1887.41 1279.54 1878.79 1254C1873.74 1239.02 1859.87 1230.7 1845 1228.08C1831.67 1225.74 1818.35 1227.66 1805 1227.99C1786.02 1228.45 1766.98 1228 1748 1228C1739.91 1228 1721.11 1231.5 1714.32 1226.97C1709.3 1223.62 1712 1207.42 1712 1202L1712 1128z"/>
<path style="fill:#c0a0cb; stroke:none;" d="M1833 847L1833 848L1836 848L1833 847M240.667 848.333L241.333 848.667L240.667 848.333z"/>
<path style="fill:#c8acd2; stroke:none;" d="M527.667 848.333L528.333 848.667L527.667 848.333M854.667 848.333L855.333 848.667L854.667 848.333z"/>
<path style="fill:#b088be; stroke:none;" d="M1645.67 848.333L1646.33 848.667L1645.67 848.333z"/>
<path style="fill:#c8acd2; stroke:none;" d="M236.667 849.333L237.333 849.667L236.667 849.333z"/>
<path style="fill:#d0b8d8; stroke:none;" d="M1642.67 849.333L1643.33 849.667L1642.67 849.333M233.667 850.333L234.333 850.667L233.667 850.333M847.667 850.333L848.333 850.667L847.667 850.333M832.667 855.333L833.333 855.667L832.667 855.333M1575.33 873.667L1575.67 874.333L1575.33 873.667M1887.33 874.667L1887.67 875.333L1887.33 874.667z"/>
<path style="fill:#c8acd2; stroke:none;" d="M1576.33 876.667L1576.67 877.333L1576.33 876.667z"/>
<path style="fill:#d0b8d8; stroke:none;" d="M1479.33 879.667L1479.67 880.333L1479.33 879.667z"/>
<path style="fill:#b088be; stroke:none;" d="M2254 879L2254 882L2255 882L2254 879z"/>
<path style="fill:#ba605c; stroke:none;" d="M2280 879L2280 883L2281 883L2280 879z"/>
<path style="fill:#c0a0cb; stroke:none;" d="M1577.33 880.667L1577.67 881.333L1577.33 880.667z"/>
<path style="fill:#c8acd2; stroke:none;" d="M1478 883L1478 887L1479 887L1478 883z"/>
<path style="fill:#b894c5; stroke:none;" d="M1175 884L1175 887L1176 887L1175 884z"/>
<path style="fill:#9d507a; stroke:none;" d="M1452 886L1452 965L1453 965L1453 911L1452 886z"/>
<path style="fill:#e8dcec; stroke:none;" d="M1578 887L1578 903L1579 903L1578 887z"/>
<path style="fill:#a070b1; stroke:none;" d="M2255 887L2255 895L2256 895L2255 887z"/>
<path style="fill:#b894c5; stroke:none;" d="M1611 888L1611 891L1612 891L1611 888z"/>
<path style="fill:#a070b1; stroke:none;" d="M1174 893L1174 922L1175 922L1174 893z"/>
<path style="fill:#d0b8d8; stroke:none;" d="M323.333 894.667L323.667 895.333L323.333 894.667z"/>
<path style="fill:#a070b1; stroke:none;" d="M1610 896L1610 900L1611 900L1610 896z"/>
<path style="fill:#c0a0cb; stroke:none;" d="M1885 897L1885 900L1886 900L1885 897z"/>
<path style="fill:#d0b8d8; stroke:none;" d="M478.333 898.667L478.667 899.333L478.333 898.667M190 899L190 902L191 902L190 899z"/>
<path style="fill:#b894c5; stroke:none;" d="M2254 899L2254 902L2255 902L2254 899z"/>
<path style="fill:#c0a0cb; stroke:none;" d="M1610 900L1610 936L1611 936C1611 925.613 1614.01 909.56 1610 900z"/>
<path style="fill:#b088be; stroke:none;" d="M1869 900L1869 903L1870 903L1869 900z"/>
<path style="fill:#d0b8d8; stroke:none;" d="M613 902L613 905L614 905L613 902z"/>
<path style="fill:#b088be; stroke:none;" d="M1886.33 903.667L1886.67 904.333L1886.33 903.667z"/>
<path style="fill:#b894c5; stroke:none;" d="M189 904L189 907L190 907L189 904z"/>
<path style="fill:#d0b8d8; stroke:none;" d="M326.333 904.667L326.667 905.333L326.333 904.667z"/>
<path style="fill:#9d507a; stroke:none;" d="M1149 905C1149 925.445 1152.74 950.109 1148 970C1151.66 966.803 1150 958.577 1150 954C1150 940.224 1154.31 917.645 1149 905z"/>
<path style="fill:#d0b8d8; stroke:none;" d="M475.333 908.667L475.667 909.333L475.333 908.667M614.333 908.667L614.667 909.333L614.333 908.667z"/>
<path style="fill:#b894c5; stroke:none;" d="M188 910L188 913L189 913L188 910z"/>
<path style="fill:#d0b8d8; stroke:none;" d="M329.333 914.667L329.667 915.333L329.333 914.667M473.333 915.667L473.667 916.333L473.333 915.667z"/>
<path style="fill:#b894c5; stroke:none;" d="M187 916L187 919L188 919L187 916z"/>
<path style="fill:#b088be; stroke:none;" d="M186 922L186 925L187 925L186 922z"/>
<path style="fill:#d0b8d8; stroke:none;" d="M332.333 924.667L332.667 925.333L332.333 924.667z"/>
<path style="fill:#b088be; stroke:none;" d="M617 924L617 927L618 927L617 924z"/>
<path style="fill:#d0b8d8; stroke:none;" d="M470.333 925.667L470.667 926.333L470.333 925.667z"/>
<path style="fill:#b088be; stroke:none;" d="M185 928L185 931L186 931L185 928M618 930L618 933L619 933L618 930z"/>
<path style="fill:#d0b8d8; stroke:none;" d="M335.333 934.667L335.667 935.333L335.333 934.667z"/>
<path style="fill:#a070b1; stroke:none;" d="M905 934L905 935L914 935L905 934z"/>
<path style="fill:#804097; stroke:none;" d="M914 934.428C884.198 937.986 859.591 943.183 837.004 965.039C789.954 1010.57 784.003 1091.54 803.33 1151C809.982 1171.47 820.442 1191.72 836.039 1206.91C861.786 1231.98 897.924 1240.34 933 1236.83C1037.2 1226.41 1060.89 1089.53 1026.42 1009C1007.94 965.81 963.807 928.482 914 934.428z"/>
<path style="fill:#a070b1; stroke:none;" d="M920 934L920 935L929 935L920 934z"/>
<path style="fill:#c0a0cb; stroke:none;" d="M896 935L896 936L899 936L896 935z"/>
<path style="fill:#d0b8d8; stroke:none;" d="M934 935L934 936L939 936L934 935z"/>
<path style="fill:#b088be; stroke:none;" d="M619 936L619 939L620 939L619 936M891 936L891 937L894 937L891 936z"/>
<path style="fill:#c0a0cb; stroke:none;" d="M941.667 936.333L942.333 936.667L941.667 936.333z"/>
<path style="fill:#a070b1; stroke:none;" d="M1610 936L1610 1023L1611 1023L1611 963L1610 936z"/>
<path style="fill:#b894c5; stroke:none;" d="M886.667 937.333L887.333 937.667L886.667 937.333z"/>
<path style="fill:#b088be; stroke:none;" d="M945 937L945 938L948 938L945 937z"/>
<path style="fill:#c8acd2; stroke:none;" d="M1831.67 938.333L1832.33 938.667L1831.67 938.333z"/>
<path style="fill:#d0b8d8; stroke:none;" d="M953.667 939.333L954.333 939.667L953.667 939.333z"/>
<path style="fill:#e0d0e5; stroke:none;" d="M1712 939L1712 940L1757 940C1745.3 935.09 1724.74 939 1712 939z"/>
<path style="fill:#c0a0cb; stroke:none;" d="M1757 939L1757 940L1825 940L1804 939L1757 939z"/>
<path style="fill:#a070b1; stroke:none;" d="M1825 939L1825 940L1829 940L1825 939z"/>
<path style="fill:#d0b8d8; stroke:none;" d="M956.667 940.333L957.333 940.667L956.667 940.333z"/>
<path style="fill:#c0a0cb; stroke:none;" d="M1711 940L1711 946L1712 946L1711 940z"/>
<path style="fill:#d0b8d8; stroke:none;" d="M465.333 942.667L465.667 943.333L465.333 942.667z"/>
<path style="fill:#b894c5; stroke:none;" d="M620 942L620 945L621 945L620 942z"/>
<path style="fill:#d0b8d8; stroke:none;" d="M338.333 944.667L338.667 945.333L338.333 944.667z"/>
<path style="fill:#e8dcec; stroke:none;" d="M1711 946L1711 1033L1712 1033L1712 973L1711 946z"/>
<path style="fill:#c8acd2; stroke:none;" d="M339.333 947.667L339.667 948.333L339.333 947.667z"/>
<path style="fill:#d0b8d8; stroke:none;" d="M182 948L182 951L183 951L182 948z"/>
<path style="fill:#b894c5; stroke:none;" d="M621 948L621 951L622 951L621 948z"/>
<path style="fill:#c8acd2; stroke:none;" d="M462.333 952.667L462.667 953.333L462.333 952.667z"/>
<path style="fill:#d0b8d8; stroke:none;" d="M181 954L181 957L182 957L181 954M622 955L622 958L623 958L622 955z"/>
<path style="fill:#c8acd2; stroke:none;" d="M342.333 957.667L342.667 958.333L342.333 957.667z"/>
<path style="fill:#b894c5; stroke:none;" d="M180 959L180 962L181 962L180 959z"/>
<path style="fill:#d0b8d8; stroke:none;" d="M460.333 959.667L460.667 960.333L460.333 959.667z"/>
<path style="fill:#f48120; stroke:none;" d="M902 960.439C860.254 966.946 832.739 1002.34 823.651 1042C808.921 1106.28 825.981 1198.52 902 1211.08C912.782 1212.86 924.234 1212.26 935 1210.56C974.671 1204.3 997.705 1173.52 1008.59 1137C1027.75 1072.71 1009.77 971.984 931 960.729C921.875 959.425 911.138 959.015 902 960.439z"/>
<path style="fill:#d0b8d8; stroke:none;" d="M623 961L623 964L624 964L623 961z"/>
<path style="fill:#b894c5; stroke:none;" d="M179 965L179 968L180 968L179 965z"/>
<path style="fill:#ba605c; stroke:none;" d="M1452 965L1452 1052L1453 1052L1453 992L1452 965z"/>
<path style="fill:#d7713e; stroke:none;" d="M1738 965L1738 966L1829 966L1801 965L1738 965z"/>
<path style="fill:#ba605c; stroke:none;" d="M1737 966L1737 1009L1738 1009C1738 996.781 1741.71 977.225 1737 966z"/>
<path style="fill:#c8acd2; stroke:none;" d="M345.333 967.667L345.667 968.333L345.333 967.667M457.333 969.667L457.667 970.333L457.333 969.667z"/>
<path style="fill:#b894c5; stroke:none;" d="M178 971L178 974L179 974L178 971z"/>
<path style="fill:#d0b8d8; stroke:none;" d="M455.333 976.667L455.667 977.333L455.333 976.667z"/>
<path style="fill:#b088be; stroke:none;" d="M177 977L177 980L178 980L177 977z"/>
<path style="fill:#d0b8d8; stroke:none;" d="M348.333 977.667L348.667 978.333L348.333 977.667z"/>
<path style="fill:#e0d0e5; stroke:none;" d="M1478 982L1478 1069L1479 1069L1479 1009L1478 982z"/>
<path style="fill:#b088be; stroke:none;" d="M176 983L176 986L177 986L176 983M627 983L627 986L628 986L627 983z"/>
<path style="fill:#c8acd2; stroke:none;" d="M452.333 986.667L452.667 987.333L452.333 986.667z"/>
<path style="fill:#d0b8d8; stroke:none;" d="M351.333 987.667L351.667 988.333L351.333 987.667z"/>
<path style="fill:#b088be; stroke:none;" d="M628 989L628 992L629 992L628 989z"/>
<path style="fill:#a070b1; stroke:none;" d="M1579 990L1579 1077L1580 1077L1580 1017L1579 990z"/>
<path style="fill:#d0b8d8; stroke:none;" d="M450.333 993.667L450.667 994.333L450.333 993.667M1131.33 994.667L1131.67 995.333L1131.33 994.667z"/>
<path style="fill:#b894c5; stroke:none;" d="M629 995L629 998L630 998L629 995z"/>
<path style="fill:#d0b8d8; stroke:none;" d="M354.333 997.667L354.667 998.333L354.333 997.667z"/>
<path style="fill:#b894c5; stroke:none;" d="M630 1001L630 1004L631 1004L630 1001z"/>
<path style="fill:#d0b8d8; stroke:none;" d="M173 1003L173 1006L174 1006L173 1003M447.333 1003.67L447.667 1004.33L447.333 1003.67M1134.33 1003.67L1134.67 1004.33L1134.33 1003.67M698.333 1005.67L698.667 1006.33L698.333 1005.67M357.333 1007.67L357.667 1008.33L357.333 1007.67M172 1009L172 1012L173 1012L172 1009z"/>
<path style="fill:#e0d0e5; stroke:none;" d="M1175 1009L1175 1096L1176 1096L1176 1036L1175 1009z"/>
<path style="fill:#9d507a; stroke:none;" d="M1738 1009L1738 1010L1801 1010L1781 1009L1738 1009z"/>
<path style="fill:#a070b1; stroke:none;" d="M535 1012L534 1016L535 1012z"/>
<path style="fill:#a87cb8; stroke:none;" d="M268 1013L270 1016L268 1013z"/>
<path style="fill:#d0b8d8; stroke:none;" d="M632 1014L632 1017L633 1017L632 1014z"/>
<path style="fill:#c8acd2; stroke:none;" d="M171.333 1015.67L171.667 1016.33L171.333 1015.67z"/>
<path style="fill:#d0b8d8; stroke:none;" d="M360.333 1017.67L360.667 1018.33L360.333 1017.67z"/>
<path style="fill:#b894c5; stroke:none;" d="M536.333 1019.67L536.667 1020.33L536.333 1019.67M170 1020L170 1023L171 1023L170 1020z"/>
<path style="fill:#b088be; stroke:none;" d="M267 1020L267 1023L268 1023L267 1020z"/>
<path style="fill:#d0b8d8; stroke:none;" d="M442.333 1020.67L442.667 1021.33L442.333 1020.67z"/>
<path style="fill:#b088be; stroke:none;" d="M532.333 1020.67L532.667 1021.33L532.333 1020.67z"/>
<path style="fill:#d0b8d8; stroke:none;" d="M633 1020L633 1023L634 1023L633 1020z"/>
<path style="fill:#b088be; stroke:none;" d="M694.333 1020.67L694.667 1021.33L694.333 1020.67z"/>
<path style="fill:#b894c5; stroke:none;" d="M1139.33 1021.67L1139.67 1022.33L1139.33 1021.67M272.333 1024.67L272.667 1025.33L272.333 1024.67M693.333 1025.67L693.667 1026.33L693.333 1025.67M169 1026L169 1029L170 1029L169 1026z"/>
<path style="fill:#b088be; stroke:none;" d="M537 1026L537 1029L538 1029L537 1026z"/>
<path style="fill:#c8acd2; stroke:none;" d="M1140.33 1026.67L1140.67 1027.33L1140.33 1026.67z"/>
<path style="fill:#b088be; stroke:none;" d="M266 1027L266 1030L267 1030L266 1027z"/>
<path style="fill:#d0b8d8; stroke:none;" d="M363.333 1027.67L363.667 1028.33L363.333 1027.67z"/>
<path style="fill:#b088be; stroke:none;" d="M530.333 1027.67L530.667 1028.33L530.333 1027.67M800.333 1029.67L800.667 1030.33L800.333 1029.67z"/>
<path style="fill:#a070b1; stroke:none;" d="M1276 1029L1276 1104L1277 1104L1277 1052L1276 1029z"/>
<path style="fill:#c8acd2; stroke:none;" d="M439.333 1030.67L439.667 1031.33L439.333 1030.67z"/>
<path style="fill:#b894c5; stroke:none;" d="M692 1030L692 1033L693 1033L692 1030z"/>
<path style="fill:#d0b8d8; stroke:none;" d="M538 1031L538 1034L539 1034L538 1031z"/>
<path style="fill:#b088be; stroke:none;" d="M168 1032L168 1035L169 1035L168 1032z"/>
<path style="fill:#b894c5; stroke:none;" d="M1034.33 1032.67L1034.67 1033.33L1034.33 1032.67z"/>
<path style="fill:#b088be; stroke:none;" d="M265 1034L265 1037L266 1037L265 1034z"/>
<path style="fill:#a070b1; stroke:none;" d="M1785 1034L1785 1035L1824 1035C1813.73 1030.69 1796.17 1034 1785 1034z"/>
<path style="fill:#d0b8d8; stroke:none;" d="M1828 1035L1828 1036L1831 1036L1828 1035z"/>
<path style="fill:#b088be; stroke:none;" d="M636 1036L636 1039L637 1039L636 1036z"/>
<path style="fill:#b894c5; stroke:none;" d="M691 1036L691 1039L692 1039L691 1036z"/>
<path style="fill:#c0a0cb; stroke:none;" d="M1035.33 1036.67L1035.67 1037.33L1035.33 1036.67z"/>
<path style="fill:#b894c5; stroke:none;" d="M1142 1036L1142 1039L1143 1039L1142 1036z"/>
<path style="fill:#d0b8d8; stroke:none;" d="M437.333 1037.67L437.667 1038.33L437.333 1037.67z"/>
<path style="fill:#b088be; stroke:none;" d="M798 1037L798 1040L799 1040L798 1037M167 1038L167 1041L168 1041L167 1038M276.333 1038.67L276.667 1039.33L276.333 1038.67z"/>
<path style="fill:#c8acd2; stroke:none;" d="M539 1038L539 1041L540 1041L539 1038M367.333 1040.67L367.667 1041.33L367.333 1040.67z"/>
<path style="fill:#b088be; stroke:none;" d="M264 1041L264 1044L265 1044L264 1041M1036 1041L1036 1044L1037 1044L1036 1041M637 1042L637 1045L638 1045L637 1042M797 1042L797 1045L798 1045L797 1042M1143 1042L1143 1045L1144 1045L1143 1042M278.333 1045.67L278.667 1046.33L278.333 1045.67z"/>
<path style="fill:#d0b8d8; stroke:none;" d="M796 1046L796 1049L797 1049L796 1046z"/>
<path style="fill:#c0a0cb; stroke:none;" d="M1037.33 1046.67L1037.67 1047.33L1037.33 1046.67z"/>
<path style="fill:#c8acd2; stroke:none;" d="M434.333 1047.67L434.667 1048.33L434.333 1047.67z"/>
<path style="fill:#b088be; stroke:none;" d="M263 1048L263 1051L264 1051L263 1048z"/>
<path style="fill:#b894c5; stroke:none;" d="M524.333 1048.67L524.667 1049.33L524.333 1048.67z"/>
<path style="fill:#b088be; stroke:none;" d="M638 1048L638 1051L639 1051L638 1048z"/>
<path style="fill:#c8acd2; stroke:none;" d="M370.333 1050.67L370.667 1051.33L370.333 1050.67z"/>
<path style="fill:#c0a0cb; stroke:none;" d="M1144 1051L1144 1054L1145 1054L1144 1051z"/>
<path style="fill:#d7713e; stroke:none;" d="M1452 1052L1452 1067L1453 1067L1452 1052z"/>
<path style="fill:#b088be; stroke:none;" d="M541 1053L541 1056L542 1056L541 1053M1038 1053L1038 1056L1039 1056L1038 1053z"/>
<path style="fill:#d0b8d8; stroke:none;" d="M432.333 1054.67L432.667 1055.33L432.333 1054.67z"/>
<path style="fill:#b894c5; stroke:none;" d="M639 1054L639 1057L640 1057L639 1054z"/>
<path style="fill:#b088be; stroke:none;" d="M262 1055L262 1058L263 1058L262 1055z"/>
<path style="fill:#b894c5; stroke:none;" d="M522.333 1055.67L522.667 1056.33L522.333 1055.67z"/>
<path style="fill:#d0b8d8; stroke:none;" d="M164 1056L164 1061L165 1061L164 1056M542 1058L542 1061L543 1061L542 1058z"/>
<path style="fill:#c16454; stroke:none;" d="M1013 1058L1013 1064L1014 1064L1013 1058z"/>
<path style="fill:#d0b8d8; stroke:none;" d="M373.333 1060.67L373.667 1061.33L373.333 1060.67z"/>
<path style="fill:#b894c5; stroke:none;" d="M640 1060L640 1063L641 1063L640 1060z"/>
<path style="fill:#a070b1; stroke:none;" d="M1039 1060L1039 1065L1040 1065L1039 1060z"/>
<path style="fill:#c0a0cb; stroke:none;" d="M1145 1061L1145 1065L1146 1065L1145 1061z"/>
<path style="fill:#b894c5; stroke:none;" d="M283.333 1062.67L283.667 1063.33L283.333 1062.67z"/>
<path style="fill:#a070b1; stroke:none;" d="M794 1062L794 1068L795 1068L794 1062z"/>
<path style="fill:#d0b8d8; stroke:none;" d="M163 1064L163 1067L164 1067L163 1064z"/>
<path style="fill:#c8acd2; stroke:none;" d="M429.333 1064.67L429.667 1065.33L429.333 1064.67z"/>
<path style="fill:#c0a0cb; stroke:none;" d="M688 1064L688 1068L689 1068L688 1064z"/>
<path style="fill:#d0b8d8; stroke:none;" d="M641 1067L641 1070L642 1070L641 1067z"/>
<path style="fill:#c8acd2; stroke:none;" d="M1867.33 1067.67L1867.67 1068.33L1867.33 1067.67z"/>
<path style="fill:#c0a0cb; stroke:none;" d="M1478 1069L1478 1144L1479 1144L1479 1092L1478 1069z"/>
<path style="fill:#d0b8d8; stroke:none;" d="M162 1070L162 1073L163 1073L162 1070M376.333 1070.67L376.667 1071.33L376.333 1070.67M427.333 1071.67L427.667 1072.33L427.333 1071.67z"/>
<path style="fill:#b088be; stroke:none;" d="M517.333 1073.67L517.667 1074.33L517.333 1073.67z"/>
<path style="fill:#d0b8d8; stroke:none;" d="M642 1073L642 1076L643 1076L642 1073z"/>
<path style="fill:#d7713e; stroke:none;" d="M819 1073L819 1099L820 1099L819 1073z"/>
<path style="fill:#c0a0cb; stroke:none;" d="M1040 1073L1040 1079L1041 1079L1040 1073z"/>
<path style="fill:#a070b1; stroke:none;" d="M1146 1074L1146 1099L1147 1099L1146 1074z"/>
<path style="fill:#b894c5; stroke:none;" d="M161 1075L161 1078L162 1078L161 1075z"/>
<path style="fill:#b088be; stroke:none;" d="M287.333 1076.67L287.667 1077.33L287.333 1076.67z"/>
<path style="fill:#c0a0cb; stroke:none;" d="M1579 1077L1579 1164L1580 1164L1580 1104L1579 1077M545 1079L545 1082L546 1082L545 1079M793 1079L793 1092L794 1092L793 1079z"/>
<path style="fill:#a070b1; stroke:none;" d="M1040 1079L1040 1094L1041 1094L1040 1079M1869 1079L1869 1084L1870 1084L1869 1079z"/>
<path style="fill:#d0b8d8; stroke:none;" d="M379.333 1080.67L379.667 1081.33L379.333 1080.67z"/>
<path style="fill:#b088be; stroke:none;" d="M515.333 1080.67L515.667 1081.33L515.333 1080.67z"/>
<path style="fill:#b894c5; stroke:none;" d="M160 1081L160 1084L161 1084L160 1081z"/>
<path style="fill:#d0b8d8; stroke:none;" d="M424.333 1081.67L424.667 1082.33L424.333 1081.67M546 1085L546 1088L547 1088L546 1085z"/>
<path style="fill:#b088be; stroke:none;" d="M159 1087L159 1090L160 1090L159 1087M513.333 1087.67L513.667 1088.33L513.333 1087.67z"/>
<path style="fill:#b894c5; stroke:none;" d="M1868 1089L1868 1092L1869 1092L1868 1089z"/>
<path style="fill:#d0b8d8; stroke:none;" d="M382.333 1090.67L382.667 1091.33L382.333 1090.67z"/>
<path style="fill:#b088be; stroke:none;" d="M158 1093L158 1096L159 1096L158 1093z"/>
<path style="fill:#b894c5; stroke:none;" d="M292.333 1093.67L292.667 1094.33L292.333 1093.67z"/>
<path style="fill:#c0a0cb; stroke:none;" d="M1040 1094L1040 1100L1041 1100L1040 1094z"/>
<path style="fill:#b088be; stroke:none;" d="M646 1095L646 1098L647 1098L646 1095z"/>
<path style="fill:#c0a0cb; stroke:none;" d="M1175 1096L1175 1184L1176 1184L1176 1123L1175 1096z"/>
<path style="fill:#a070b1; stroke:none;" d="M2121 1097L2121 1147L2122 1147C2122 1132.95 2126.41 1109.89 2121 1097z"/>
<path style="fill:#d0b8d8; stroke:none;" d="M419.333 1098.67L419.667 1099.33L419.333 1098.67z"/>
<path style="fill:#e0d0e5; stroke:none;" d="M2020 1098L2020 1139L2021 1139C2021 1127.3 2024.51 1108.75 2020 1098z"/>
<path style="fill:#b088be; stroke:none;" d="M157 1099L157 1102L158 1102L157 1099z"/>
<path style="fill:#b894c5; stroke:none;" d="M294.333 1100.67L294.667 1101.33L294.333 1100.67z"/>
<path style="fill:#d0b8d8; stroke:none;" d="M385.333 1100.67L385.667 1101.33L385.333 1100.67z"/>
<path style="fill:#b088be; stroke:none;" d="M647 1101L647 1104L648 1104L647 1101z"/>
<path style="fill:#c8acd2; stroke:none;" d="M255 1103L255 1106L256 1106L255 1103z"/>
<path style="fill:#c0a0cb; stroke:none;" d="M688 1103L688 1107L689 1107L688 1103M1276 1104L1276 1191L1277 1191L1277 1131L1276 1104z"/>
<path style="fill:#ba605c; stroke:none;" d="M1994 1105L1994 1121L1995 1121L1994 1105z"/>
<path style="fill:#c0a0cb; stroke:none;" d="M549 1106L549 1109L550 1109L549 1106z"/>
<path style="fill:#b894c5; stroke:none;" d="M648 1107L648 1110L649 1110L648 1107z"/>
<path style="fill:#a070b1; stroke:none;" d="M688 1107L688 1111L689 1111L688 1107z"/>
<path style="fill:#b894c5; stroke:none;" d="M507.333 1108.67L507.667 1109.33L507.333 1108.67z"/>
<path style="fill:#c0a0cb; stroke:none;" d="M1145 1108L1145 1112L1146 1112L1145 1108z"/>
<path style="fill:#c8acd2; stroke:none;" d="M254 1110L254 1113L255 1113L254 1110z"/>
<path style="fill:#d0b8d8; stroke:none;" d="M388.333 1110.67L388.667 1111.33L388.333 1110.67z"/>
<path style="fill:#c0a0cb; stroke:none;" d="M1039 1110L1039 1113L1040 1113L1039 1110z"/>
<path style="fill:#e0d0e5; stroke:none;" d="M1611 1111L1611 1198L1612 1198L1612 1138L1611 1111z"/>
<path style="fill:#b894c5; stroke:none;" d="M649 1113L649 1116L650 1116L649 1113z"/>
<path style="fill:#b088be; stroke:none;" d="M298.333 1114.67L298.667 1115.33L298.333 1114.67z"/>
<path style="fill:#d0b8d8; stroke:none;" d="M414.333 1115.67L414.667 1116.33L414.333 1115.67z"/>
<path style="fill:#b894c5; stroke:none;" d="M505.333 1115.67L505.667 1116.33L505.333 1115.67z"/>
<path style="fill:#a070b1; stroke:none;" d="M689 1116L689 1121L690 1121L689 1116z"/>
<path style="fill:#c8acd2; stroke:none;" d="M253 1117L253 1120L254 1120L253 1117z"/>
<path style="fill:#d0b8d8; stroke:none;" d="M1038 1117L1038 1121L1039 1121L1038 1117M154 1119L154 1122L155 1122L154 1119M551 1119L551 1122L552 1122L551 1119M391.333 1120.67L391.667 1121.33L391.333 1120.67z"/>
<path style="fill:#a070b1; stroke:none;" d="M1144 1120L1144 1124L1145 1124L1144 1120z"/>
<path style="fill:#d7713e; stroke:none;" d="M1302 1120L1302 1208L1303 1208L1303 1147L1302 1120M1994 1121L1994 1209L1995 1209L1995 1148L1994 1121z"/>
<path style="fill:#d0b8d8; stroke:none;" d="M796 1123L796 1126L797 1126L796 1123z"/>
<path style="fill:#c8acd2; stroke:none;" d="M252 1124L252 1127L253 1127L252 1124z"/>
<path style="fill:#b894c5; stroke:none;" d="M1037 1124L1037 1127L1038 1127L1037 1124z"/>
<path style="fill:#d0b8d8; stroke:none;" d="M153 1125L153 1128L154 1128L153 1125z"/>
<path style="fill:#c8acd2; stroke:none;" d="M411.333 1125.67L411.667 1126.33L411.333 1125.67z"/>
<path style="fill:#a070b1; stroke:none;" d="M690 1125L690 1129L691 1129L690 1125z"/>
<path style="fill:#c8acd2; stroke:none;" d="M552 1126L552 1129L553 1129L552 1126z"/>
<path style="fill:#d0b8d8; stroke:none;" d="M651 1126L651 1129L652 1129L651 1126z"/>
<path style="fill:#b088be; stroke:none;" d="M1832.67 1126.33L1833.33 1126.67L1832.67 1126.33M797 1127L797 1130L798 1130L797 1127z"/>
<path style="fill:#e8dcec; stroke:none;" d="M1791 1127L1791 1128L1828 1128C1818.2 1123.89 1801.65 1127 1791 1127z"/>
<path style="fill:#a070b1; stroke:none;" d="M1712 1128L1712 1207L1713 1207L1713 1153L1712 1128z"/>
<path style="fill:#b894c5; stroke:none;" d="M152 1130L152 1133L153 1133L152 1130z"/>
<path style="fill:#c0a0cb; stroke:none;" d="M1036.33 1130.67L1036.67 1131.33L1036.33 1130.67z"/>
<path style="fill:#b894c5; stroke:none;" d="M303.333 1131.67L303.667 1132.33L303.333 1131.67z"/>
<path style="fill:#3d2fd1; stroke:none;" d="M2429 1131.42C2413.85 1133.42 2399.24 1135.83 2386 1144.07C2350.48 1166.14 2337.27 1217.69 2324.67 1255C2286.65 1367.53 2245.88 1479.92 2203.81 1591C2185.91 1638.25 2146 1712.54 2198 1752.1C2225.14 1772.74 2258.91 1769 2291 1769L2472 1769L2994 1769L3160 1769C3190.77 1769 3223.65 1772.26 3254 1766.54C3310.74 1755.84 3324.61 1695.13 3343 1649C3390.02 1531.07 3435.33 1412.39 3481.19 1294C3499.5 1246.73 3533.17 1180.96 3478 1144.36C3450.75 1126.28 3416.05 1131 3385 1131L3196 1131L2682 1131L2514 1131C2486.31 1131 2456.44 1127.81 2429 1131.42z"/>
<path style="fill:#d0b8d8; stroke:none;" d="M409.333 1132.67L409.667 1133.33L409.333 1132.67M652 1132L652 1135L653 1135L652 1132z"/>
<path style="fill:#c0a0cb; stroke:none;" d="M691.333 1132.67L691.667 1133.33L691.333 1132.67z"/>
<path style="fill:#b088be; stroke:none;" d="M798 1132L798 1135L799 1135L798 1132z"/>
<path style="fill:#c8acd2; stroke:none;" d="M395.333 1133.67L395.667 1134.33L395.333 1133.67z"/>
<path style="fill:#b088be; stroke:none;" d="M500.333 1133.67L500.667 1134.33L500.333 1133.67M553 1134L553 1137L554 1137L553 1134z"/>
<path style="fill:#d0b8d8; stroke:none;" d="M1035.33 1135.67L1035.67 1136.33L1035.33 1135.67z"/>
<path style="fill:#b894c5; stroke:none;" d="M151 1136L151 1139L152 1139L151 1136M305.333 1138.67L305.667 1139.33L305.333 1138.67M692 1138L692 1141L693 1141L692 1138z"/>
<path style="fill:#d0b8d8; stroke:none;" d="M1034.33 1139.67L1034.67 1140.33L1034.33 1139.67M1141 1139L1141 1142L1142 1142L1141 1139z"/>
<path style="fill:#c0a0cb; stroke:none;" d="M2020 1139L2020 1226L2021 1226L2021 1166L2020 1139z"/>
<path style="fill:#b088be; stroke:none;" d="M498.333 1140.67L498.667 1141.33L498.333 1140.67z"/>
<path style="fill:#c8acd2; stroke:none;" d="M800.333 1141.67L800.667 1142.33L800.333 1141.67z"/>
<path style="fill:#b088be; stroke:none;" d="M150 1142L150 1145L151 1145L150 1142z"/>
<path style="fill:#c8acd2; stroke:none;" d="M406.333 1142.67L406.667 1143.33L406.333 1142.67M398.333 1143.67L398.667 1144.33L398.333 1143.67z"/>
<path style="fill:#c0a0cb; stroke:none;" d="M693.333 1143.67L693.667 1144.33L693.333 1143.67z"/>
<path style="fill:#d0b8d8; stroke:none;" d="M249 1145L249 1148L250 1148L249 1145z"/>
<path style="fill:#b894c5; stroke:none;" d="M1140 1145L1140 1148L1141 1148L1140 1145z"/>
<path style="fill:#d0b8d8; stroke:none;" d="M555 1146L555 1149L556 1149L555 1146z"/>
<path style="fill:#c8acd2; stroke:none;" d="M1032.33 1146.67L1032.67 1147.33L1032.33 1146.67z"/>
<path style="fill:#c0a0cb; stroke:none;" d="M2121 1147L2121 1234L2122 1234L2122 1174L2121 1147z"/>
<path style="fill:#b088be; stroke:none;" d="M149 1148L149 1151L150 1151L149 1148z"/>
<path style="fill:#b894c5; stroke:none;" d="M694.333 1148.67L694.667 1149.33L694.333 1148.67z"/>
<path style="fill:#d0b8d8; stroke:none;" d="M802.333 1148.67L802.667 1149.33L802.333 1148.67M404.333 1149.67L404.667 1150.33L404.333 1149.67z"/>
<path style="fill:#b088be; stroke:none;" d="M1139.33 1150.67L1139.67 1151.33L1139.33 1150.67z"/>
<path style="fill:#d0b8d8; stroke:none;" d="M803.333 1151.67L803.667 1152.33L803.333 1151.67M248 1152L248 1155L249 1155L248 1152z"/>
<path style="fill:#b088be; stroke:none;" d="M309.333 1152.67L309.667 1153.33L309.333 1152.67z"/>
<path style="fill:#d0b8d8; stroke:none;" d="M401.333 1153.67L401.667 1154.33L401.333 1153.67z"/>
<path style="fill:#c8acd2; stroke:none;" d="M556 1153L556 1156L557 1156L556 1153z"/>
<path style="fill:#9d507a; stroke:none;" d="M1738 1153L1738 1154L1775 1154C1765.2 1149.89 1748.65 1153 1738 1153z"/>
<path style="fill:#ba605c; stroke:none;" d="M1775 1153L1775 1154L1825 1154C1812.11 1148.59 1789.05 1153 1775 1153z"/>
<path style="fill:#b088be; stroke:none;" d="M148 1154L148 1157L149 1157L148 1154M656 1154L656 1157L657 1157L656 1154z"/>
<path style="fill:#d0b8d8; stroke:none;" d="M804.333 1154.67L804.667 1155.33L804.333 1154.67z"/>
<path style="fill:#b894c5; stroke:none;" d="M1138.33 1154.67L1138.67 1155.33L1138.33 1154.67z"/>
<path style="fill:#b088be; stroke:none;" d="M1137.33 1158.67L1137.67 1159.33L1137.33 1158.67z"/>
<path style="fill:#d0b8d8; stroke:none;" d="M247 1159L247 1162L248 1162L247 1159z"/>
<path style="fill:#b088be; stroke:none;" d="M657 1160L657 1163L658 1163L657 1160z"/>
<path style="fill:#b894c5; stroke:none;" d="M697.333 1160.67L697.667 1161.33L697.333 1160.67M492.333 1161.67L492.667 1162.33L492.333 1161.67M557.333 1161.67L557.667 1162.33L557.333 1161.67z"/>
<path style="fill:#d7713e; stroke:none;" d="M2147 1163L2147 1250L2148 1250L2148 1190L2147 1163z"/>
<path style="fill:#e8dcec; stroke:none;" d="M1579 1164L1579 1251L1580 1251L1580 1191L1579 1164z"/>
<path style="fill:#d0b8d8; stroke:none;" d="M246 1166L246 1169L247 1169L246 1166z"/>
<path style="fill:#b894c5; stroke:none;" d="M658 1166L658 1169L659 1169L658 1166M699.333 1167.67L699.667 1168.33L699.333 1167.67M490.333 1168.67L490.667 1169.33L490.333 1168.67z"/>
<path style="fill:#b088be; stroke:none;" d="M558 1168L558 1171L559 1171L558 1168z"/>
<path style="fill:#b894c5; stroke:none;" d="M314.333 1169.67L314.667 1170.33L314.333 1169.67M659 1172L659 1175L660 1175L659 1172z"/>
<path style="fill:#d0b8d8; stroke:none;" d="M245 1173L245 1176L246 1176L245 1173M559 1173L559 1176L560 1176L559 1173M145 1174L145 1177L146 1177L145 1174z"/>
<path style="fill:#b894c5; stroke:none;" d="M488.333 1175.67L488.667 1176.33L488.333 1175.67M316.333 1176.67L316.667 1177.33L316.333 1176.67z"/>
<path style="fill:#d0b8d8; stroke:none;" d="M660 1179L660 1182L661 1182L660 1179M144 1180L144 1183L145 1183L144 1180M244 1180L244 1183L245 1183L244 1180z"/>
<path style="fill:#c8acd2; stroke:none;" d="M560 1180L560 1183L561 1183L560 1180z"/>
<path style="fill:#a070b1; stroke:none;" d="M1175 1184L1175 1270L1176 1270L1176 1211L1175 1184z"/>
<path style="fill:#b894c5; stroke:none;" d="M143 1185L143 1188L144 1188L143 1185z"/>
<path style="fill:#d0b8d8; stroke:none;" d="M661 1185L661 1188L662 1188L661 1185M243 1187L243 1190L244 1190L243 1187z"/>
<path style="fill:#b088be; stroke:none;" d="M320.333 1190.67L320.667 1191.33L320.333 1190.67z"/>
<path style="fill:#b894c5; stroke:none;" d="M142 1191L142 1194L143 1194L142 1191z"/>
<path style="fill:#e8dcec; stroke:none;" d="M1276 1191L1276 1280L1277 1280L1277 1218L1276 1191z"/>
<path style="fill:#b088be; stroke:none;" d="M483.333 1193.67L483.667 1194.33L483.333 1193.67M562 1195L562 1198L563 1198L562 1195M242 1196L242 1199L243 1199L242 1196z"/>
<path style="fill:#b894c5; stroke:none;" d="M141 1197L141 1200L142 1200L141 1197z"/>
<path style="fill:#c0a0cb; stroke:none;" d="M1611 1198L1611 1273L1612 1273L1612 1221L1611 1198z"/>
<path style="fill:#b088be; stroke:none;" d="M481.333 1200.67L481.667 1201.33L481.333 1200.67z"/>
<path style="fill:#d0b8d8; stroke:none;" d="M563 1200L563 1203L564 1203L563 1200z"/>
<path style="fill:#ba605c; stroke:none;" d="M1741 1201L1741 1202L1828 1202L1801 1201L1741 1201z"/>
<path style="fill:#b088be; stroke:none;" d="M140 1203L140 1206L141 1206L140 1203M241 1203L241 1206L242 1206L241 1203z"/>
<path style="fill:#b894c5; stroke:none;" d="M325.333 1207.67L325.667 1208.33L325.333 1207.67z"/>
<path style="fill:#b088be; stroke:none;" d="M665 1207L665 1210L666 1210L665 1207z"/>
<path style="fill:#c0a0cb; stroke:none;" d="M1712 1207L1712 1227L1713 1227L1712 1207z"/>
<path style="fill:#ba605c; stroke:none;" d="M1302 1208L1302 1280L1303 1280L1303 1231L1302 1208z"/>
<path style="fill:#b088be; stroke:none;" d="M139 1209L139 1212L140 1212L139 1209z"/>
<path style="fill:#ba605c; stroke:none;" d="M892.667 1209.33L893.333 1209.67L892.667 1209.33z"/>
<path style="fill:#b088be; stroke:none;" d="M240 1210L240 1213L241 1213L240 1210M666 1213L666 1216L667 1216L666 1213z"/>
<path style="fill:#b894c5; stroke:none;" d="M327.333 1214.67L327.667 1215.33L327.333 1214.67z"/>
<path style="fill:#b088be; stroke:none;" d="M239 1217L239 1220L240 1220L239 1217z"/>
<path style="fill:#b894c5; stroke:none;" d="M667 1219L667 1222L668 1222L667 1219M475.333 1221.67L475.667 1222.33L475.333 1221.67z"/>
<path style="fill:#b088be; stroke:none;" d="M566 1222L566 1225L567 1225L566 1222M238 1224L238 1227L239 1227L238 1224z"/>
<path style="fill:#b894c5; stroke:none;" d="M668 1225L668 1228L669 1228L668 1225z"/>
<path style="fill:#a070b1; stroke:none;" d="M2020 1226L2020 1278L2021 1278L2021 1243L2020 1226z"/>
<path style="fill:#d0b8d8; stroke:none;" d="M567 1227L567 1230L568 1230L567 1227z"/>
<path style="fill:#c0a0cb; stroke:none;" d="M1713 1227L1713 1228L1725 1228L1713 1227z"/>
<path style="fill:#e8dcec; stroke:none;" d="M1725 1227L1725 1228L1811 1228L1784 1227L1725 1227z"/>
<path style="fill:#c0a0cb; stroke:none;" d="M1841 1227L1841 1228L1845 1228L1841 1227z"/>
<path style="fill:#b088be; stroke:none;" d="M331.333 1228.67L331.667 1229.33L331.333 1228.67z"/>
<path style="fill:#b894c5; stroke:none;" d="M473.333 1228.67L473.667 1229.33L473.333 1228.67M1847.67 1228.33L1848.33 1228.67L1847.67 1228.33z"/>
<path style="fill:#d0b8d8; stroke:none;" d="M136 1229L136 1232L137 1232L136 1229z"/>
<path style="fill:#b088be; stroke:none;" d="M1851.67 1229.33L1852.33 1229.67L1851.67 1229.33M237 1231L237 1234L238 1234L237 1231z"/>
<path style="fill:#b894c5; stroke:none;" d="M669 1231L669 1234L670 1234L669 1231z"/>
<path style="fill:#b088be; stroke:none;" d="M879.667 1232.33L880.333 1232.67L879.667 1232.33z"/>
<path style="fill:#b894c5; stroke:none;" d="M945.667 1234.33L946.333 1234.67L945.667 1234.33z"/>
<path style="fill:#e0d0e5; stroke:none;" d="M2121 1234L2121 1282L2122 1282C2122 1268.47 2126.21 1246.41 2121 1234z"/>
<path style="fill:#d0b8d8; stroke:none;" d="M135 1235L135 1238L136 1238L135 1235z"/>
<path style="fill:#b894c5; stroke:none;" d="M471.333 1235.67L471.667 1236.33L471.333 1235.67z"/>
<path style="fill:#c0a0cb; stroke:none;" d="M891 1235L891 1236L894 1236L891 1235z"/>
<path style="fill:#b894c5; stroke:none;" d="M940 1235L940 1236L943 1236L940 1235z"/>
<path style="fill:#a070b1; stroke:none;" d="M898 1236L898 1237L902 1237L898 1236z"/>
<path style="fill:#c0a0cb; stroke:none;" d="M908 1237L908 1238L914 1238L908 1237z"/>
<path style="fill:#a070b1; stroke:none;" d="M914 1237L914 1238L920 1238L914 1237z"/>
<path style="fill:#c0a0cb; stroke:none;" d="M920 1237L920 1238L926 1238L920 1237z"/>
<path style="fill:#d0b8d8; stroke:none;" d="M670 1238L670 1241L671 1241L670 1238z"/>
<path style="fill:#c8acd2; stroke:none;" d="M134.333 1241.67L134.667 1242.33L134.333 1241.67z"/>
<path style="fill:#d0b8d8; stroke:none;" d="M671 1244L671 1247L672 1247L671 1244z"/>
<path style="fill:#b894c5; stroke:none;" d="M336.333 1245.67L336.667 1246.33L336.333 1245.67M133 1246L133 1249L134 1249L133 1246z"/>
<path style="fill:#c0a0cb; stroke:none;" d="M570 1248L570 1251L571 1251L570 1248z"/>
<path style="fill:#ba605c; stroke:none;" d="M2147 1250L2147 1278L2148 1278L2147 1250z"/>
<path style="fill:#b894c5; stroke:none;" d="M132 1252L132 1255L133 1255L132 1252z"/>
<path style="fill:#b088be; stroke:none;" d="M466.333 1253.67L466.667 1254.33L466.333 1253.67z"/>
<path style="fill:#9d507a; stroke:none;" d="M1150 1253L1150 1283L1151 1283L1150 1253z"/>
<path style="fill:#d0b8d8; stroke:none;" d="M571 1254L571 1257L572 1257L571 1254M1879.33 1255.67L1879.67 1256.33L1879.33 1255.67z"/>
<path style="fill:#b088be; stroke:none;" d="M131 1258L131 1261L132 1261L131 1258z"/>
<path style="fill:#c8acd2; stroke:none;" d="M1880.33 1258.67L1880.67 1259.33L1880.33 1258.67z"/>
<path style="fill:#b088be; stroke:none;" d="M464.333 1260.67L464.667 1261.33L464.333 1260.67z"/>
<path style="fill:#ba605c; stroke:none;" d="M1907 1261L1907 1265L1908 1265L1907 1261z"/>
<path style="fill:#d0b8d8; stroke:none;" d="M1881 1263L1881 1266L1882 1266L1881 1263z"/>
<path style="fill:#b088be; stroke:none;" d="M130 1264L130 1267L131 1267L130 1264M342.333 1266.67L342.667 1267.33L342.333 1266.67M675 1266L675 1269L676 1269L675 1266z"/>
<path style="fill:#c8acd2; stroke:none;" d="M573 1268L573 1271L574 1271L573 1268z"/>
<path style="fill:#9d507a; stroke:none;" d="M701 1269L701 1287L702 1287L701 1269z"/>
<path style="fill:#a070b1; stroke:none;" d="M1882 1269L1882 1279L1883 1279L1882 1269z"/>
<path style="fill:#c0a0cb; stroke:none;" d="M129 1273L129 1286L130 1286L129 1273z"/>
<path style="fill:#b088be; stroke:none;" d="M574 1276L574 1279L575 1279L574 1276z"/>
<path style="fill:#c8acd2; stroke:none;" d="M230 1279L230 1282L231 1282L230 1279z"/>
<path style="fill:#a070b1; stroke:none;" d="M1276 1280L1276 1284L1277 1284L1276 1280z"/>
<path style="fill:#b088be; stroke:none;" d="M1612.33 1280.67L1612.67 1281.33L1612.33 1280.67z"/>
<path style="fill:#b894c5; stroke:none;" d="M458.333 1281.67L458.667 1282.33L458.333 1281.67z"/>
<path style="fill:#d0b8d8; stroke:none;" d="M575 1281L575 1284L576 1284L575 1281M1881 1281L1881 1284L1882 1284L1881 1281z"/>
<path style="fill:#b894c5; stroke:none;" d="M347.333 1283.67L347.667 1284.33L347.333 1283.67M2021.33 1283.67L2021.67 1284.33L2021.33 1283.67z"/>
<path style="fill:#9e97e8; stroke:none;" d="M2577 1283L2577 1284L2595 1284L2577 1283z"/>
<path style="fill:#6e63dd; stroke:none;" d="M2595 1283L2595 1284L2599 1284L2595 1283M2858 1283L2858 1284L2862 1284L2858 1283z"/>
<path style="fill:#9e97e8; stroke:none;" d="M2862 1283L2862 1284L2879 1284L2862 1283z"/>
<path style="fill:#7a70df; stroke:none;" d="M2569.67 1284.33L2570.33 1284.67L2569.67 1284.33z"/>
<path style="fill:#ffffff; stroke:none;" d="M2513 1319L2512 1319C2504.32 1285.81 2459.1 1273.57 2439.11 1304C2432.58 1313.93 2433 1325.64 2433 1337L2433 1387L2433 1587L2433 1645C2433 1656.26 2431.69 1668.21 2435.55 1679C2446.38 1709.32 2491.95 1713.14 2506.73 1684C2513.63 1670.39 2512 1654.76 2512 1640L2512 1563C2570.34 1616.58 2658.73 1585.66 2694.57 1523C2729.35 1462.2 2720.68 1374.95 2675.27 1322C2647.12 1289.17 2601.4 1277.55 2560 1286.79C2542.72 1290.65 2520.26 1301.84 2513 1319z"/>
<path style="fill:#c3bff1; stroke:none;" d="M2602.67 1284.33L2603.33 1284.67L2602.67 1284.33z"/>
<path style="fill:#867de2; stroke:none;" d="M2604 1284L2604 1285L2607 1285L2604 1284z"/>
<path style="fill:#ffffff; stroke:none;" d="M2945 1554C2946.61 1564.75 2952.43 1576.8 2962 1582.52C2981.35 1594.07 3012.46 1585.79 3018.1 1563C3024.38 1537.64 3020 1507.04 3020 1481C3020 1429.01 3020.61 1376.98 3020 1325C3019.85 1312.38 3016.2 1299.15 3005 1291.97C2982.59 1277.61 2947.23 1291.7 2945 1319C2924 1299.82 2905.36 1284.15 2875 1284C2850.15 1283.88 2827.44 1288.05 2806 1301.43C2732.74 1347.12 2718.36 1458.06 2761.2 1529C2790.35 1577.26 2853.88 1605.73 2908 1582.57C2922.9 1576.2 2933.73 1565.27 2945 1554z"/>
<path style="fill:#c3bff1; stroke:none;" d="M2882.67 1284.33L2883.33 1284.67L2882.67 1284.33z"/>
<path style="fill:#7a70df; stroke:none;" d="M2884 1284L2884 1285L2887 1285L2884 1284z"/>
<path style="fill:#d0b8d8; stroke:none;" d="M229 1285L229 1288L230 1288L229 1285z"/>
<path style="fill:#928ae5; stroke:none;" d="M2564.67 1285.33L2565.33 1285.67L2564.67 1285.33z"/>
<path style="fill:#aba4eb; stroke:none;" d="M2609.67 1285.33L2610.33 1285.67L2609.67 1285.33z"/>
<path style="fill:#9e97e8; stroke:none;" d="M2845 1285L2845 1286L2848 1286L2845 1285z"/>
<path style="fill:#c3bff1; stroke:none;" d="M2888.67 1285.33L2889.33 1285.67L2888.67 1285.33z"/>
<path style="fill:#b894c5; stroke:none;" d="M1578 1286L1578 1289L1579 1289L1578 1286z"/>
<path style="fill:#b088be; stroke:none;" d="M2120.33 1286.67L2120.67 1287.33L2120.33 1286.67z"/>
<path style="fill:#6e63dd; stroke:none;" d="M2468 1286L2468 1287L2477 1287L2468 1286z"/>
<path style="fill:#aba4eb; stroke:none;" d="M2560.67 1286.33L2561.33 1286.67L2560.67 1286.33M2614.67 1286.33L2615.33 1286.67L2614.67 1286.33M2841.67 1286.33L2842.33 1286.67L2841.67 1286.33z"/>
<path style="fill:#7a70df; stroke:none;" d="M2894.67 1286.33L2895.33 1286.67L2894.67 1286.33z"/>
<path style="fill:#6e63dd; stroke:none;" d="M2979 1286L2979 1287L2987 1287L2979 1286M3077 1286L3077 1287L3084 1287L3077 1286M3268 1286L3268 1287L3275 1287L3268 1286z"/>
<path style="fill:#b894c5; stroke:none;" d="M576.333 1287.67L576.667 1288.33L576.333 1287.67z"/>
<path style="fill:#b088be; stroke:none;" d="M1275.33 1287.67L1275.67 1288.33L1275.33 1287.67z"/>
<path style="fill:#cfccf4; stroke:none;" d="M2462 1287L2462 1288L2466 1288L2462 1287z"/>
<path style="fill:#867de2; stroke:none;" d="M2481.67 1287.33L2482.33 1287.67L2481.67 1287.33z"/>
<path style="fill:#7a70df; stroke:none;" d="M2619.67 1287.33L2620.33 1287.67L2619.67 1287.33z"/>
<path style="fill:#aba4eb; stroke:none;" d="M2837.67 1287.33L2838.33 1287.67L2837.67 1287.33z"/>
<path style="fill:#9e97e8; stroke:none;" d="M2973.67 1287.33L2974.33 1287.67L2973.67 1287.33z"/>
<path style="fill:#c3bff1; stroke:none;" d="M2990.67 1287.33L2991.33 1287.67L2990.67 1287.33z"/>
<path style="fill:#7a70df; stroke:none;" d="M2992.67 1287.33L2993.33 1287.67L2992.67 1287.33z"/>
<path style="fill:#c3bff1; stroke:none;" d="M3072 1287L3072 1288L3075 1288L3072 1287z"/>
<path style="fill:#ffffff; stroke:none;" d="M3174 1463C3161.21 1434.14 3151.22 1402.87 3140.94 1373C3135.28 1356.55 3129.08 1340.27 3122.91 1324C3118.55 1312.49 3115.17 1302.36 3105 1294.39C3082.41 1276.68 3042.03 1291.74 3042.03 1322C3042.03 1342.86 3055.21 1365.02 3062.8 1384L3112.8 1509C3118.7 1523.74 3131.7 1544.16 3132.49 1560C3132.92 1568.82 3125.26 1580.99 3121.85 1589C3113.32 1609.03 3104.68 1629.47 3097.44 1650C3090.2 1670.54 3095.37 1695.36 3119 1701.71C3124.02 1703.06 3129.8 1703.97 3135 1703.97C3167.98 1703.97 3176.54 1664.65 3186.4 1640C3218.55 1559.62 3251.05 1479.38 3283.2 1399C3294.07 1371.82 3327.88 1319.89 3296.99 1295.9C3277.92 1281.1 3249.42 1285.14 3236.47 1306C3228.71 1318.51 3224.73 1334.33 3219.35 1348C3204.37 1386.12 3191.35 1425.9 3174 1463z"/>
<path style="fill:#7a70df; stroke:none;" d="M3088.67 1287.33L3089.33 1287.67L3088.67 1287.33z"/>
<path style="fill:#9e97e8; stroke:none;" d="M3262.67 1287.33L3263.33 1287.67L3262.67 1287.33z"/>
<path style="fill:#c3bff1; stroke:none;" d="M3277.67 1287.33L3278.33 1287.67L3277.67 1287.33z"/>
<path style="fill:#b894c5; stroke:none;" d="M456.333 1288.67L456.667 1289.33L456.333 1288.67z"/>
<path style="fill:#b088be; stroke:none;" d="M1177.33 1288.67L1177.67 1289.33L1177.33 1288.67z"/>
<path style="fill:#867de2; stroke:none;" d="M2485.67 1288.33L2486.33 1288.67L2485.67 1288.33z"/>
<path style="fill:#c3bff1; stroke:none;" d="M2834.67 1288.33L2835.33 1288.67L2834.67 1288.33z"/>
<path style="fill:#7a70df; stroke:none;" d="M2996.67 1288.33L2997.33 1288.67L2996.67 1288.33M3092.67 1288.33L3093.33 1288.67L3092.67 1288.33M3282.67 1288.33L3283.33 1288.67L3282.67 1288.33z"/>
<path style="fill:#b894c5; stroke:none;" d="M1577.33 1290.67L1577.67 1291.33L1577.33 1290.67z"/>
<path style="fill:#b088be; stroke:none;" d="M130.333 1291.67L130.667 1292.33L130.333 1291.67M1274.33 1291.67L1274.67 1292.33L1274.33 1291.67z"/>
<path style="fill:#b7b2ee; stroke:none;" d="M3018.33 1311.67L3018.67 1312.33L3018.33 1311.67z"/>
<path style="fill:#aba4eb; stroke:none;" d="M2945.33 1313.67L2945.67 1314.33L2945.33 1313.67z"/>
<path style="fill:#867de2; stroke:none;" d="M3042 1314L3042 1317L3043 1317L3042 1314M3309 1314L3309 1317L3310 1317L3309 1314z"/>
<path style="fill:#cfccf4; stroke:none;" d="M3019 1315L3019 1319L3020 1319L3019 1315z"/>
<path style="fill:#928ae5; stroke:none;" d="M2944 1317L2943 1319L2945 1319L2944 1317z"/>
<path style="fill:#b894c5; stroke:none;" d="M1847.67 1318.33L1848.33 1318.67L1847.67 1318.33z"/>
<path style="fill:#aba4eb; stroke:none;" d="M2433.33 1318.67L2433.67 1319.33L2433.33 1318.67z"/>
<path style="fill:#b894c5; stroke:none;" d="M1842.67 1319.33L1843.33 1319.67L1842.67 1319.33z"/>
<path style="fill:#c0a0cb; stroke:none;" d="M1658 1320L1658 1321L1731 1321L1708 1320L1658 1320z"/>
<path style="fill:#a070b1; stroke:none;" d="M1731 1320L1731 1321L1818 1321L1791 1320L1731 1320z"/>
<path style="fill:#d0b8d8; stroke:none;" d="M848.667 1321.33L849.333 1321.67L848.667 1321.33z"/>
<path style="fill:#c8acd2; stroke:none;" d="M2054.67 1321.33L2055.33 1321.67L2054.67 1321.33z"/>
<path style="fill:#b894c5; stroke:none;" d="M2086.67 1321.33L2087.33 1321.67L2086.67 1321.33z"/>
<path style="fill:#9e97e8; stroke:none;" d="M3020 1321L3020 1327L3021 1327L3020 1321z"/>
<path style="fill:#b088be; stroke:none;" d="M981.667 1322.33L982.333 1322.67L981.667 1322.33z"/>
<path style="fill:#d0b8d8; stroke:none;" d="M1512.67 1322.33L1513.33 1322.67L1512.67 1322.33z"/>
<path style="fill:#b894c5; stroke:none;" d="M2058 1322L2058 1323L2061 1323L2058 1322z"/>
<path style="fill:#c3bff1; stroke:none;" d="M3122.33 1322.67L3122.67 1323.33L3122.33 1322.67z"/>
<path style="fill:#b894c5; stroke:none;" d="M977.667 1323.33L978.333 1323.67L977.667 1323.33M1242.67 1323.33L1243.33 1323.67L1242.67 1323.33z"/>
<path style="fill:#b088be; stroke:none;" d="M1542.67 1323.33L1543.33 1323.67L1542.67 1323.33z"/>
<path style="fill:#a070b1; stroke:none;" d="M2065 1323L2065 1324L2078 1324L2065 1323z"/>
<path style="fill:#9e97e8; stroke:none;" d="M2432 1323L2432 1329L2433 1329L2432 1323z"/>
<path style="fill:#b088be; stroke:none;" d="M973.667 1324.33L974.333 1324.67L973.667 1324.33z"/>
<path style="fill:#c0a0cb; stroke:none;" d="M1212.67 1324.33L1213.33 1324.67L1212.67 1324.33M1238 1324L1238 1325L1241 1325L1238 1324z"/>
<path style="fill:#c3bff1; stroke:none;" d="M3228.33 1324.67L3228.67 1325.33L3228.33 1324.67z"/>
<path style="fill:#d0b8d8; stroke:none;" d="M609.667 1325.33L610.333 1325.67L609.667 1325.33z"/>
<path style="fill:#b088be; stroke:none;" d="M863 1325L863 1326L866 1326L863 1325z"/>
<path style="fill:#c0a0cb; stroke:none;" d="M968.667 1325.33L969.333 1325.67L968.667 1325.33M1217 1325L1217 1326L1221 1326L1217 1325z"/>
<path style="fill:#a070b1; stroke:none;" d="M1231 1325L1231 1326L1236 1326L1231 1325z"/>
<path style="fill:#c8acd2; stroke:none;" d="M385.667 1326.33L386.333 1326.67L385.667 1326.33z"/>
<path style="fill:#b088be; stroke:none;" d="M418.667 1326.33L419.333 1326.67L418.667 1326.33M868 1326L868 1327L871 1327L868 1326z"/>
<path style="fill:#c0a0cb; stroke:none;" d="M963.667 1326.33L964.333 1326.67L963.667 1326.33M164.667 1327.33L165.333 1327.67L164.667 1327.33z"/>
<path style="fill:#b894c5; stroke:none;" d="M191 1327L191 1328L194 1328L191 1327z"/>
<path style="fill:#a070b1; stroke:none;" d="M412 1327L412 1328L416 1328L412 1327z"/>
<path style="fill:#c0a0cb; stroke:none;" d="M622 1327L622 1328L635 1328L622 1327z"/>
<path style="fill:#d0b8d8; stroke:none;" d="M875 1327L875 1328L878 1328L875 1327z"/>
<path style="fill:#cfccf4; stroke:none;" d="M3020 1327L3020 1547L3021 1547L3021 1392L3021 1348L3020 1327z"/>
<path style="fill:#9e97e8; stroke:none;" d="M3042.33 1327.67L3042.67 1328.33L3042.33 1327.67z"/>
<path style="fill:#b894c5; stroke:none;" d="M169 1328L169 1329L173 1329L169 1328z"/>
<path style="fill:#a070b1; stroke:none;" d="M399 1328L399 1329L406 1329L399 1328z"/>
<path style="fill:#c8acd2; stroke:none;" d="M880 1328L880 1329L884 1329L880 1328z"/>
<path style="fill:#b088be; stroke:none;" d="M951 1328L951 1329L954 1329L951 1328z"/>
<path style="fill:#6e63dd; stroke:none;" d="M3309 1328L3309 1332L3310 1332L3309 1328z"/>
<path style="fill:#a070b1; stroke:none;" d="M941 1329L941 1330L947 1330L941 1329z"/>
<path style="fill:#cfccf4; stroke:none;" d="M2432 1329L2432 1662L2433 1662L2433 1427L2433 1359L2432 1329z"/>
<path style="fill:#a070b1; stroke:none;" d="M900 1330L900 1331L904 1331L900 1330z"/>
<path style="fill:#c0a0cb; stroke:none;" d="M904 1330L904 1331L912 1331L904 1330z"/>
<path style="fill:#e0d0e5; stroke:none;" d="M912 1330L912 1331L923 1331L912 1330z"/>
<path style="fill:#c0a0cb; stroke:none;" d="M923 1330L923 1331L930 1331L923 1330z"/>
<path style="fill:#a070b1; stroke:none;" d="M930 1330L930 1331L935 1331L930 1330z"/>
<path style="fill:#7a70df; stroke:none;" d="M3043.33 1333.67L3043.67 1334.33L3043.33 1333.67z"/>
<path style="fill:#867de2; stroke:none;" d="M3308.33 1334.67L3308.67 1335.33L3308.33 1334.67z"/>
<path style="fill:#9d507a; stroke:none;" d="M1801 1345L1801 1346L1843 1346C1832.01 1341.39 1812.96 1345 1801 1345z"/>
<path style="fill:#d7713e; stroke:none;" d="M1658 1346L1658 1347L1715 1347L1697 1346L1658 1346z"/>
<path style="fill:#c3bff1; stroke:none;" d="M3219.33 1347.67L3219.67 1348.33L3219.33 1347.67z"/>
<path style="fill:#ba605c; stroke:none;" d="M379.667 1351.33L380.333 1351.67L379.667 1351.33M1221 1351L1221 1352L1232 1352L1221 1351z"/>
<path style="fill:#c16454; stroke:none;" d="M636 1352L636 1353L641 1353L636 1352z"/>
<path style="fill:#ba605c; stroke:none;" d="M172 1354L172 1355L184 1355L172 1354z"/>
<path style="fill:#d7713e; stroke:none;" d="M904 1356L904 1357L930 1357L904 1356z"/>
<path style="fill:#9e97e8; stroke:none;" d="M2570 1356L2570 1357L2578 1357L2570 1356M2876 1356L2876 1357L2884 1357L2876 1356M2562.67 1357.33L2563.33 1357.67L2562.67 1357.33z"/>
<path style="fill:#3d2fd1; stroke:none;" d="M2564 1357.46C2512.16 1366.56 2501.75 1438.39 2520.78 1479C2532.29 1503.56 2553.6 1521 2582 1516.56C2634.93 1508.29 2644.86 1438.64 2628.2 1397C2617.63 1370.58 2593.23 1352.33 2564 1357.46z"/>
<path style="fill:#928ae5; stroke:none;" d="M2583 1357L2583 1358L2586 1358L2583 1357z"/>
<path style="fill:#aba4eb; stroke:none;" d="M2867.67 1357.33L2868.33 1357.67L2867.67 1357.33z"/>
<path style="fill:#3d2fd1; stroke:none;" d="M2869 1357.44C2847.77 1360.78 2832.37 1377.84 2824.6 1397C2806.12 1442.63 2824.39 1526.5 2888 1516.56C2967.86 1504.09 2955.61 1343.81 2869 1357.44z"/>
<path style="fill:#9e97e8; stroke:none;" d="M2889 1357L2889 1358L2892 1358L2889 1357z"/>
<path style="fill:#867de2; stroke:none;" d="M2558.67 1358.33L2559.33 1358.67L2558.67 1358.33z"/>
<path style="fill:#b7b2ee; stroke:none;" d="M2588.67 1358.33L2589.33 1358.67L2588.67 1358.33z"/>
<path style="fill:#c3bff1; stroke:none;" d="M2894.67 1358.33L2895.33 1358.67L2894.67 1358.33M2897.67 1359.33L2898.33 1359.67L2897.67 1359.33M3137.33 1363.67L3137.67 1364.33L3137.33 1363.67M3141.33 1374.67L3141.67 1375.33L3141.33 1374.67M2707.33 1382.67L2707.67 1383.33L2707.33 1382.67z"/>
<path style="fill:#aba4eb; stroke:none;" d="M2708.33 1385.67L2708.67 1386.33L2708.33 1385.67z"/>
<path style="fill:#c3bff1; stroke:none;" d="M2744.33 1386.67L2744.67 1387.33L2744.33 1386.67z"/>
<path style="fill:#9e97e8; stroke:none;" d="M2743.33 1389.67L2743.67 1390.33L2743.33 1389.67z"/>
<path style="fill:#aba4eb; stroke:none;" d="M2710 1393L2710 1396L2711 1396L2710 1393z"/>
<path style="fill:#9e97e8; stroke:none;" d="M2742.33 1393.67L2742.67 1394.33L2742.33 1393.67z"/>
<path style="fill:#928ae5; stroke:none;" d="M2711.33 1397.67L2711.67 1398.33L2711.33 1397.67z"/>
<path style="fill:#b7b2ee; stroke:none;" d="M2741.33 1398.67L2741.67 1399.33L2741.33 1398.67z"/>
<path style="fill:#867de2; stroke:none;" d="M2712 1402L2712 1405L2713 1405L2712 1402z"/>
<path style="fill:#928ae5; stroke:none;" d="M2740.33 1402.67L2740.67 1403.33L2740.33 1402.67z"/>
<path style="fill:#7a70df; stroke:none;" d="M2936.33 1405.67L2936.67 1406.33L2936.33 1405.67M2631.33 1406.67L2631.67 1407.33L2631.33 1406.67z"/>
<path style="fill:#867de2; stroke:none;" d="M2515.33 1407.67L2515.67 1408.33L2515.33 1407.67M2713 1408L2713 1411L2714 1411L2713 1408z"/>
<path style="fill:#9e97e8; stroke:none;" d="M2739 1408L2739 1411L2740 1411L2739 1408z"/>
<path style="fill:#928ae5; stroke:none;" d="M2820 1409L2820 1412L2821 1412L2820 1409M2514 1411L2514 1414L2515 1414L2514 1411z"/>
<path style="fill:#aba4eb; stroke:none;" d="M2819.33 1413.67L2819.67 1414.33L2819.33 1413.67z"/>
<path style="fill:#7a70df; stroke:none;" d="M2633.33 1414.67L2633.67 1415.33L2633.33 1414.67z"/>
<path style="fill:#c3bff1; stroke:none;" d="M2513.33 1415.67L2513.67 1416.33L2513.33 1415.67z"/>
<path style="fill:#9e97e8; stroke:none;" d="M2714 1415L2714 1419L2715 1419L2714 1415M2738 1415L2738 1419L2739 1419L2738 1415z"/>
<path style="fill:#c3bff1; stroke:none;" d="M3156.33 1415.67L3156.67 1416.33L3156.33 1415.67z"/>
<path style="fill:#7a70df; stroke:none;" d="M2513 1417L2513 1420L2514 1420L2513 1417z"/>
<path style="fill:#aba4eb; stroke:none;" d="M2634 1418L2634 1421L2635 1421L2634 1418z"/>
<path style="fill:#b7b2ee; stroke:none;" d="M2818 1418L2818 1421L2819 1421L2818 1418z"/>
<path style="fill:#867de2; stroke:none;" d="M2939 1418L2939 1421L2940 1421L2939 1418z"/>
<path style="fill:#9e97e8; stroke:none;" d="M2940 1423L2940 1430L2941 1430L2940 1423z"/>
<path style="fill:#6e63dd; stroke:none;" d="M2512 1424L2512 1431L2513 1431L2512 1424M2715 1425L2715 1429L2716 1429L2715 1425M2737 1425L2737 1430L2738 1430L2737 1425M2635 1426L2635 1433L2636 1433L2635 1426z"/>
<path style="fill:#c3bff1; stroke:none;" d="M3160.33 1426.67L3160.67 1427.33L3160.33 1426.67z"/>
<path style="fill:#6e63dd; stroke:none;" d="M2817 1428L2817 1447L2818 1447L2817 1428z"/>
<path style="fill:#9e97e8; stroke:none;" d="M2715 1429L2715 1436L2716 1436L2715 1429M2737 1430L2737 1445L2738 1445L2737 1430z"/>
<path style="fill:#cfccf4; stroke:none;" d="M2715 1436L2715 1445L2716 1445L2715 1436z"/>
<path style="fill:#6e63dd; stroke:none;" d="M2512 1438L2512 1446L2513 1446L2512 1438M2635 1442L2635 1448L2636 1448L2635 1442z"/>
<path style="fill:#9e97e8; stroke:none;" d="M2715 1445L2715 1454L2716 1454L2715 1445z"/>
<path style="fill:#6e63dd; stroke:none;" d="M2737 1445L2737 1450L2738 1450L2737 1445z"/>
<path style="fill:#9e97e8; stroke:none;" d="M2940 1445L2940 1450L2941 1450L2940 1445z"/>
<path style="fill:#928ae5; stroke:none;" d="M2513 1451L2513 1454L2514 1454L2513 1451M2818 1452L2818 1455L2819 1455L2818 1452M2634 1453L2634 1456L2635 1456L2634 1453z"/>
<path style="fill:#867de2; stroke:none;" d="M2939 1454L2939 1457L2940 1457L2939 1454z"/>
<path style="fill:#9e97e8; stroke:none;" d="M2514.33 1457.67L2514.67 1458.33L2514.33 1457.67z"/>
<path style="fill:#6e63dd; stroke:none;" d="M2738 1457L2738 1461L2739 1461L2738 1457z"/>
<path style="fill:#9e97e8; stroke:none;" d="M2819.33 1458.67L2819.67 1459.33L2819.33 1458.67z"/>
<path style="fill:#aba4eb; stroke:none;" d="M2633.33 1459.67L2633.67 1460.33L2633.33 1459.67M2938 1460L2938 1463L2939 1463L2938 1460z"/>
<path style="fill:#b7b2ee; stroke:none;" d="M2515.33 1462.67L2515.67 1463.33L2515.33 1462.67z"/>
<path style="fill:#7a70df; stroke:none;" d="M3173.67 1462.33L3174.33 1462.67L3173.67 1462.33z"/>
<path style="fill:#aba4eb; stroke:none;" d="M2632.33 1463.67L2632.67 1464.33L2632.33 1463.67z"/>
<path style="fill:#c3bff1; stroke:none;" d="M2820.33 1463.67L2820.67 1464.33L2820.33 1463.67z"/>
<path style="fill:#aba4eb; stroke:none;" d="M2739 1464L2739 1467L2740 1467L2739 1464z"/>
<path style="fill:#c3bff1; stroke:none;" d="M2516.33 1466.67L2516.67 1467.33L2516.33 1466.67z"/>
<path style="fill:#aba4eb; stroke:none;" d="M2713 1466L2713 1469L2714 1469L2713 1466z"/>
<path style="fill:#c3bff1; stroke:none;" d="M2631.33 1467.67L2631.67 1468.33L2631.33 1467.67M2936.33 1468.67L2936.67 1469.33L2936.33 1468.67M2740 1470L2740 1473L2741 1473L2740 1470z"/>
<path style="fill:#7a70df; stroke:none;" d="M2712.33 1473.67L2712.67 1474.33L2712.33 1473.67z"/>
<path style="fill:#928ae5; stroke:none;" d="M2711 1477L2711 1480L2712 1480L2711 1477z"/>
<path style="fill:#7a70df; stroke:none;" d="M2741.33 1477.67L2741.67 1478.33L2741.33 1477.67z"/>
<path style="fill:#928ae5; stroke:none;" d="M2742.33 1481.67L2742.67 1482.33L2742.33 1481.67M2709.33 1485.67L2709.67 1486.33L2709.33 1485.67z"/>
<path style="fill:#7a70df; stroke:none;" d="M2708.33 1489.67L2708.67 1490.33L2708.33 1489.67M2744.33 1489.67L2744.67 1490.33L2744.33 1489.67M2707.33 1492.67L2707.67 1493.33L2707.33 1492.67M2706.33 1495.67L2706.67 1496.33L2706.33 1495.67z"/>
<path style="fill:#c3bff1; stroke:none;" d="M2591.67 1514.33L2592.33 1514.67L2591.67 1514.33z"/>
<path style="fill:#7a70df; stroke:none;" d="M2861.67 1514.33L2862.33 1514.67L2861.67 1514.33z"/>
<path style="fill:#9e97e8; stroke:none;" d="M2587.67 1515.33L2588.33 1515.67L2587.67 1515.33z"/>
<path style="fill:#928ae5; stroke:none;" d="M2864.67 1515.33L2865.33 1515.67L2864.67 1515.33z"/>
<path style="fill:#aba4eb; stroke:none;" d="M2893.67 1515.33L2894.33 1515.67L2893.67 1515.33z"/>
<path style="fill:#9e97e8; stroke:none;" d="M2563.67 1516.33L2564.33 1516.67L2563.67 1516.33z"/>
<path style="fill:#928ae5; stroke:none;" d="M2582 1516L2582 1517L2585 1517L2582 1516z"/>
<path style="fill:#aba4eb; stroke:none;" d="M2868.67 1516.33L2869.33 1516.67L2868.67 1516.33z"/>
<path style="fill:#9e97e8; stroke:none;" d="M2888 1516L2888 1517L2891 1517L2888 1516z"/>
<path style="fill:#cfccf4; stroke:none;" d="M2569 1517L2569 1518L2579 1518L2569 1517M2875 1517L2875 1518L2885 1518L2875 1517z"/>
<path style="fill:#6e63dd; stroke:none;" d="M3020 1547L3020 1553L3021 1553L3020 1547z"/>
<path style="fill:#b7b2ee; stroke:none;" d="M3019 1555L3019 1558L3020 1558L3019 1555z"/>
<path style="fill:#7a70df; stroke:none;" d="M3018.33 1561.67L3018.67 1562.33L3018.33 1561.67M2947.33 1562.67L2947.67 1563.33L2947.33 1562.67z"/>
<path style="fill:#c3bff1; stroke:none;" d="M2549.67 1584.33L2550.33 1584.67L2549.67 1584.33M2552.67 1585.33L2553.33 1585.67L2552.67 1585.33z"/>
<path style="fill:#aba4eb; stroke:none;" d="M2968.67 1585.33L2969.33 1585.67L2968.67 1585.33z"/>
<path style="fill:#928ae5; stroke:none;" d="M2995.67 1585.33L2996.33 1585.67L2995.67 1585.33z"/>
<path style="fill:#aba4eb; stroke:none;" d="M2555.67 1586.33L2556.33 1586.67L2555.67 1586.33z"/>
<path style="fill:#7a70df; stroke:none;" d="M2615.67 1586.33L2616.33 1586.67L2615.67 1586.33z"/>
<path style="fill:#aba4eb; stroke:none;" d="M2836.67 1586.33L2837.33 1586.67L2836.67 1586.33z"/>
<path style="fill:#867de2; stroke:none;" d="M2896.67 1586.33L2897.33 1586.67L2896.67 1586.33z"/>
<path style="fill:#9e97e8; stroke:none;" d="M2972 1586L2972 1587L2975 1587L2972 1586z"/>
<path style="fill:#c3bff1; stroke:none;" d="M2989.67 1586.33L2990.33 1586.67L2989.67 1586.33z"/>
<path style="fill:#7a70df; stroke:none;" d="M2991.67 1586.33L2992.33 1586.67L2991.67 1586.33z"/>
<path style="fill:#aba4eb; stroke:none;" d="M2559.67 1587.33L2560.33 1587.67L2559.67 1587.33M2610.67 1587.33L2611.33 1587.67L2610.67 1587.33z"/>
<path style="fill:#9e97e8; stroke:none;" d="M2840.67 1587.33L2841.33 1587.67L2840.67 1587.33z"/>
<path style="fill:#928ae5; stroke:none;" d="M2892.67 1587.33L2893.33 1587.67L2892.67 1587.33M2563.67 1588.33L2564.33 1588.67L2563.67 1588.33z"/>
<path style="fill:#aba4eb; stroke:none;" d="M2605.67 1588.33L2606.33 1588.67L2605.67 1588.33z"/>
<path style="fill:#9e97e8; stroke:none;" d="M2845.67 1588.33L2846.33 1588.67L2845.67 1588.33z"/>
<path style="fill:#aba4eb; stroke:none;" d="M2887.67 1588.33L2888.33 1588.67L2887.67 1588.33z"/>
<path style="fill:#cfccf4; stroke:none;" d="M2570 1589L2570 1590L2574 1590L2570 1589z"/>
<path style="fill:#6e63dd; stroke:none;" d="M2599 1589L2599 1590L2603 1590L2599 1589z"/>
<path style="fill:#9e97e8; stroke:none;" d="M2850 1589L2850 1590L2854 1590L2850 1589M2882.67 1589.33L2883.33 1589.67L2882.67 1589.33z"/>
<path style="fill:#6e63dd; stroke:none;" d="M2577 1590L2577 1591L2581 1591L2577 1590z"/>
<path style="fill:#9e97e8; stroke:none;" d="M2581 1590L2581 1591L2589 1591L2581 1590z"/>
<path style="fill:#6e63dd; stroke:none;" d="M2589 1590L2589 1591L2594 1591L2589 1590M2860 1590L2860 1591L2865 1591L2860 1590z"/>
<path style="fill:#9e97e8; stroke:none;" d="M2865 1590L2865 1591L2873 1591L2865 1590z"/>
<path style="fill:#6e63dd; stroke:none;" d="M2873 1590L2873 1591L2877 1591L2873 1590z"/>
<path style="fill:#aba4eb; stroke:none;" d="M3095.33 1656.67L3095.67 1657.33L3095.33 1656.67z"/>
<path style="fill:#867de2; stroke:none;" d="M3094 1660L3094 1663L3095 1663L3094 1660z"/>
<path style="fill:#9e97e8; stroke:none;" d="M2432 1662L2432 1668L2433 1668L2432 1662z"/>
<path style="fill:#7a70df; stroke:none;" d="M2511 1668L2511 1671L2512 1671L2511 1668M2433.33 1671.67L2433.67 1672.33L2433.33 1671.67M2510.33 1673.67L2510.67 1674.33L2510.33 1673.67M2434.33 1675.67L2434.67 1676.33L2434.33 1675.67M3094.33 1675.67L3094.67 1676.33L3094.33 1675.67z"/>
<path style="fill:#aba4eb; stroke:none;" d="M2459.67 1702.33L2460.33 1702.67L2459.67 1702.33z"/>
<path style="fill:#c3bff1; stroke:none;" d="M3121.67 1702.33L3122.33 1702.67L3121.67 1702.33z"/>
<path style="fill:#cfccf4; stroke:none;" d="M2463 1703L2463 1704L2467 1704L2463 1703z"/>
<path style="fill:#867de2; stroke:none;" d="M2479 1703L2479 1704L2482 1704L2479 1703z"/>
<path style="fill:#cfccf4; stroke:none;" d="M3125 1703L3125 1704L3130 1704L3125 1703z"/>
<path style="fill:#b7b2ee; stroke:none;" d="M3140 1703L3140 1704L3143 1704L3140 1703z"/>
</svg>
