<svg xmlns="http://www.w3.org/2000/svg" xmlns:xlink="http://www.w3.org/1999/xlink" width="75" height="26" viewBox="0 0 75 26">
    <defs>
        <radialGradient id="74njryjoxb" cx="60.427%" cy="47.653%" r="67.049%" fx="60.427%" fy="47.653%" gradientTransform="scale(1 .66174) rotate(.492 -27.745 .598)">
            <stop offset="0%" stop-color="#7EC142"/>
            <stop offset="11.23%" stop-color="#73B942"/>
            <stop offset="31.26%" stop-color="#54A341"/>
            <stop offset="57.56%" stop-color="#237F40"/>
            <stop offset="71.91%" stop-color="#056A40"/>
            <stop offset="100%" stop-color="#0F1A0F"/>
        </radialGradient>
        <path id="r1lijp1pqa" d="M9.695 10.543c-.11.393-.32.713-.467.897-.602-2.249-1.671-3.416-2.187-3.87.442-.013 1.204.122 2.052.97.59.614.799 1.29.602 2.003m-2.974-2.74c-.036.209-.073.577-.073 1.032v.197c0 .761-.013 2.764.712 3.49.185.184.394.27.64.27h.024c.025 0 .713.098.885-.959-.086-.344-.787-2.912-2.188-4.03m-1.069-.037c-.368-.11-1.806-.406-3.944.995-1.081.7-1.622 1.5-1.573 2.31.05.725.602 1.426 1.487 1.88.344-.22 2.568-1.732 4.03-5.185m.258.43c-.712 1.782-1.708 3.084-2.42 3.87-.688.762-1.266 1.193-1.463 1.34.099.307.504 1.487 1.426 1.487 1.081 0 1.732-1.5 1.745-1.524.061-.123 1.278-2.826.712-5.173m3.81-4.387c-.074-.368-.283-.614-.43-.75-.074.259-.21.701-.48 1.242-.344.7-.958 1.708-1.978 2.568.48.098 1.511.086 2.42-1.303.419-.65.578-1.24.468-1.757M8.147 1.401c-.258-.012-.467.061-.664.233-.798.7-.897 2.728-.934 3.49l-.012.135c-.024.467.012 1.032.037 1.315 1.77-1.438 2.372-3.576 2.433-3.846C8.909 1.51 8.184 1.4 8.147 1.4M5.935 5.247c-.05-2.814-.97-4.78-2.396-5.124-.307-.074-.59-.037-.836.123-.491.307-.712.958-.786 1.204 1.597.995 2.617 2.31 3.182 3.232.381.614.615 1.142.738 1.462.11-.48.098-.897.098-.897m-4.399-3.38C.566 2.262.025 2.938.012 3.773 0 4.264.197 4.78.553 5.26c.38.492.922.91 1.573 1.18 2.027.86 3.17.332 3.453.172C4.325 3.49 1.905 2.064 1.536 1.868"/>
    </defs>
    <g fill="none" fill-rule="evenodd">
        <g>
            <g>
                <g>
                    <g>
                        <g transform="translate(-253 -545) translate(16 522) translate(237 23) translate(0 4) translate(.025 .098)">
                            <mask id="nsqadmqwoc" fill="#fff">
                                <use xlink:href="#r1lijp1pqa"/>
                            </mask>
                            <use fill="#231F20" fill-rule="nonzero" xlink:href="#r1lijp1pqa"/>
                            <path fill="url(#74njryjoxb)" fill-rule="nonzero" d="M0.012 14.893L9.904 14.967 9.892 0.086 0 0z" mask="url(#nsqadmqwoc)"/>
                        </g>
                        <g fill-rule="nonzero">
                            <path fill="#231F20" d="M34.91 2.986c0-.234-.074-.418-.234-.565-.16-.172-.344-.234-.565-.234-.234 0-.418.074-.565.234-.11.098-.172.209-.21.344-.011.061-.024.135-.024.22 0 .222.074.406.234.566.147.16.331.234.565.234.221 0 .405-.062.565-.234.16-.16.234-.344.234-.565m.061 7.495c-.098-.184-.11-.786-.11-1.548v-3.28c0-.689.073-1.303-.59-1.303-.21 0-.627.147-1.106.405.246.172.344.504.344 1.23v2.973c0 .86 0 1.327-.11 1.536h1.572v-.012zm-3.686.123c-.615 0-1.057-.196-1.34-.565-.196-.258-.295-.737-.295-1.413V5.284h-.933v-.738l.933-.11.099-1.462 1.24-.086v1.56h1.537v.836H30.99v3.391c0 .64.27.959.786.959.332 0 .652-.074 1.008-.258l.11.786c-.552.295-1.093.442-1.61.442M11.748 9.216c-.344.27-.75.455-1.18.455-.614 0-.995-.259-.995-.898 0-.946.885-1.572 2.175-1.24v1.683zm1.462 1.266c-.086-.345-.11-.91-.11-1.389v-2.58c0-1.684-.75-2.225-2.384-2.225-.639 0-1.155.136-1.745.394l-.16.848c.553-.295 1.205-.418 1.831-.418 1.143 0 1.094.897 1.094 1.77-1.585-.492-3.588.122-3.539 2.051.025 1.094.823 1.671 1.83 1.696.689.012 1.266-.258 1.733-.75l.099.603h1.351zm13.48 0c.05-.123.05-.406.05-.738V6.476c0-.811-.246-1.18-.849-1.18-.454 0-.995.332-1.425.713v2.973c0 .344 0 .652.025.91.012.258.036.454.061.577h-1.474c.049-.246.073-.737.073-1.45V5.947c0-.75-.123-1.056-.344-1.204.529-.27.848-.393 1.081-.393.443 0 .541.38.541.872.516-.528 1.254-.934 1.942-.934.675 0 1.167.234 1.474.725.074.111.123.258.16.43.061.259.086.603.086 1.008v2.52c0 .994.05 1.412.086 1.523h-1.487v-.012zm-9.461-5.125c-.099-.012-.197-.012-.345-.012-.43 0-.86.221-1.277.7v3.036c0 .884.036 1.302.086 1.413h-1.475c.025-.099.037-.21.05-.344.024-.283.024-.652.024-1.057V5.96c0-.689-.11-1.07-.357-1.205.43-.22.824-.393 1.082-.393.442 0 .54.418.54.885.418-.64.934-.946 1.536-.946.11 0 .222.012.332.037l-.196 1.02zm4.865 5.125c-.098-.222-.11-.91-.11-1.389v-2.58c0-1.684-.75-2.225-2.372-2.225-.639 0-1.167.136-1.757.394l-.16.848c.21-.111.43-.197.664-.259.38-.11.786-.16 1.18-.16 1.155 0 1.093.898 1.093 1.77-1.573-.491-3.588.123-3.539 2.052.025 1.094.824 1.671 1.831 1.696.688.012 1.266-.258 1.745-.75 0 0 .025.381.098.603h1.327zM20.62 9.216c-.344.27-.75.455-1.18.455-.602 0-.995-.259-.995-.898 0-.946.885-1.572 2.175-1.24v1.683zM7.004 3.121c-.676-.27-1.388-.405-2.101-.405-.922 0-1.647.331-2.261.958-.615.639-.91 1.462-.91 2.458 0 1.08.27 1.953.824 2.58.54.627 1.253.959 2.224.959.504 0 .922-.074 1.278-.197V7.348c0-.147 0-.283-.012-.405h-1.13c-.013-.381-.062-.775-.124-1.008l2.765.098c-.098.332-.11.725-.11 1.413V8.54c0 .762.049 1.29.11 1.548-.958.394-1.917.59-2.888.59-1.437 0-2.53-.393-3.342-1.18C.541 8.712.074 7.655.074 6.304c0-1.364.491-2.482 1.376-3.355.872-.86 2.015-1.278 3.453-1.278 1.229 0 1.671.16 2.322.381l-.22 1.07" transform="translate(-253 -545) translate(16 522) translate(237 23) translate(0 4) translate(11.55 1.229)"/>
                            <path fill="#006B2A" d="M42.184 6.439l-.43 3.12c-.11.775-.393 1.193-.848 1.242-.061 0-.11.012-.16 0-.049 0-.11-.012-.172-.012l.578-4.24-2.2.234-1.253 9.105 2.2-.233.43-3.085c.294.123.602.16.909.136.614-.062 1.18-.381 1.696-.959.516-.577.847-1.388.995-2.42l.43-3.097-2.175.209z" transform="translate(-253 -545) translate(16 522) translate(237 23) translate(0 4) translate(11.55 1.229)"/>
                            <path fill="#004914" d="M41.312 5.333l.184-1.327c.233-.258.467-.393.713-.43.172-.013.27.135.27.442v.172c0 .062 0 .123-.025.197l-.11.823 2.175-.221.147-1.032c.037-.27.062-.504.062-.725 0-.664-.16-1.13-.467-1.426-.308-.295-.725-.405-1.241-.356-.369.037-.689.135-.959.307-.27.16-.504.381-.713.651l-.061-.614-1.683.172-.492 3.576 2.2-.21z" transform="translate(-253 -545) translate(16 522) translate(237 23) translate(0 4) translate(11.55 1.229)"/>
                            <path fill="#231F20" d="M57.028 4.952L57.212 3.625 62.213 2.986 62.041 4.313z" transform="translate(-253 -545) translate(16 522) translate(237 23) translate(0 4) translate(11.55 1.229)"/>
                            <path fill="#004914" d="M57.261 3.674L57.753 0.086 55.553 0.307 55.062 3.895z" transform="translate(-253 -545) translate(16 522) translate(237 23) translate(0 4) translate(11.55 1.229)"/>
                            <path fill="#006B2A" d="M54.902 5.1l-.48 3.501c-.27.345-.515.529-.737.553-.196.025-.282-.122-.282-.442 0-.074 0-.135.012-.197.012-.061.012-.122.037-.196l.43-3.109-2.175.221-.455 3.256c-.036.283-.061.529-.061.75 0 .664.135 1.13.418 1.4.282.283.663.394 1.155.345.516-.05.983-.283 1.4-.7l-.098.774c-.037.32-.172.565-.405.75-.221.184-.43.282-.627.306-.553.062-1.057-.012-1.524-.209l-.798 2.077c.676.209 1.351.27 2.04.197.405-.05.81-.148 1.204-.332.393-.172.75-.418 1.069-.713.32-.295.59-.663.81-1.093.222-.43.37-.91.455-1.45l.811-5.898-2.2.208z" transform="translate(-253 -545) translate(16 522) translate(237 23) translate(0 4) translate(11.55 1.229)"/>
                            <path fill="#004914" d="M54.029 4.006L54.521 0.418 52.346 0.639 51.855 4.227z" transform="translate(-253 -545) translate(16 522) translate(237 23) translate(0 4) translate(11.55 1.229)"/>
                            <path fill="#006B2A" d="M48.488 5.775l-.516 3.797c-.234.258-.467.393-.713.43-.197.025-.283-.123-.283-.442 0-.05 0-.11.013-.172.012-.062.012-.123.024-.197l.455-3.305-2.175.221-.48 3.514c-.024.197-.049.369-.06.529-.013.16-.025.307-.025.467 0 .614.122 1.032.368 1.253.246.221.627.307 1.13.258.738-.074 1.365-.393 1.893-.958l.025.59 1.72-.185.823-6.033-2.2.233z" transform="translate(-253 -545) translate(16 522) translate(237 23) translate(0 4) translate(11.55 1.229)"/>
                            <path fill="#004914" d="M47.628 4.67l.098-.726c.061-.356.147-.626.282-.798.136-.172.308-.27.541-.295.135-.013.246.024.332.11L48.66 4.56l2.2-.234.49-3.588-1.99.21-.037.368c-.43-.295-.946-.418-1.585-.344-.528.061-.995.307-1.376.75-.381.442-.627 1.105-.737 1.978l-.16 1.18 2.163-.21z" transform="translate(-253 -545) translate(16 522) translate(237 23) translate(0 4) translate(11.55 1.229)"/>
                        </g>
                    </g>
                </g>
            </g>
        </g>
    </g>
</svg>
