<svg xmlns="http://www.w3.org/2000/svg" width="24" height="24" viewBox="0 0 24 24">
    <g fill="none" fill-rule="evenodd">
        <g>
            <path d="M0 0H24V24H0z"/>
            <g>
                <path fill="#C7C8CB" d="M15.492.24c.656-.437 1.542-.26 1.98.396.437.656.26 1.543-.396 1.98L12 6 6.924 2.616c-.656-.437-.833-1.324-.396-1.98.438-.656 1.324-.833 1.98-.396L12 2.568 15.492.24z"/>
                <path fill="#6A6C6E" d="M9.333 12c.737 0 1.334.597 1.334 1.333v9.334c0 .736-.597 1.333-1.334 1.333H2.667c-.737 0-1.334-.597-1.334-1.333v-9.334c0-.736.597-1.333 1.334-1.333h6.666zm12 0c.737 0 1.334.597 1.334 1.333v9.334c0 .736-.597 1.333-1.334 1.333h-6.666c-.737 0-1.334-.597-1.334-1.333v-9.334c0-.736.597-1.333 1.334-1.333h6.666zm1.334-6C23.403 6 24 6.597 24 7.333v1.334C24 9.403 23.403 10 22.667 10H1.333C.597 10 0 9.403 0 8.667V7.333C0 6.597.597 6 1.333 6h21.334z"/>
            </g>
        </g>
    </g>
</svg>
