<svg xmlns="http://www.w3.org/2000/svg" width="24" height="24" viewBox="0 0 24 24">
    <g fill="none" fill-rule="evenodd">
        <g>
            <path d="M0 0H24V24H0z" transform="matrix(-1 0 0 1 24 0)"/>
            <path fill="#6A6C6E" d="M22.565 1C23.357 1 24 1.642 24 2.433c0 .792-.643 1.434-1.435 1.434h-1.373l-1.884 8.043-.845 5.074-.002.008c-.121.67-.754 1.108-1.415.988L3.218 15.47c-.456-.084-.825-.418-.952-.863L.047 6.85c-.03-.109-.046-.221-.046-.335C0 5.845.545 5.3 1.217 5.3H17.91l.746-3.192c.152-.65.73-1.108 1.398-1.108h2.51z" transform="matrix(-1 0 0 1 24 0)"/>
            <path fill="#C7C8CB" d="M6 19c1.105 0 2 .895 2 2s-.895 2-2 2-2-.895-2-2 .895-2 2-2zm9 0c1.105 0 2 .895 2 2s-.895 2-2 2-2-.895-2-2 .895-2 2-2z" transform="matrix(-1 0 0 1 24 0)"/>
        </g>
    </g>
</svg>
