<svg xmlns="http://www.w3.org/2000/svg" width="24" height="24" viewBox="0 0 24 24">
    <g fill="none" fill-rule="evenodd">
        <g>
            <path d="M0 0H24V24H0z"/>
            <path fill="#C7C8CB" d="M17.805 16.016c.606-.485 1.474-.423 2.006.12l.102.114 3.758 5.313c.518.647.413 1.59-.234 2.108-.606.485-1.474.424-2.006-.119l-.102-.115-3.758-5.313c-.518-.646-.413-1.59.234-2.108z"/>
            <path fill="#6A6C6E" d="M14 .5C8.753.5 4.5 4.753 4.5 10s4.253 9.5 9.5 9.5 9.5-4.253 9.5-9.5S19.247.5 14 .5zm0 3c3.59 0 6.5 2.91 6.5 6.5s-2.91 6.5-6.5 6.5-6.5-2.91-6.5-6.5 2.91-6.5 6.5-6.5z"/>
            <path fill="#6A6C6E" d="M4.098 15c.829 0 1.5.672 1.5 1.5s-.671 1.5-1.5 1.5H1.5C.672 18 0 17.328 0 16.5S.672 15 1.5 15h2.598zm0-5c.829 0 1.5.672 1.5 1.5s-.671 1.5-1.5 1.5h-.626c-.829 0-1.5-.672-1.5-1.5s.671-1.5 1.5-1.5h.626zm0-6c.829 0 1.5.672 1.5 1.5S4.927 7 4.098 7H2.481c-.828 0-1.5-.672-1.5-1.5S1.653 4 2.481 4h1.617z" transform="matrix(-1 0 0 1 5.598 0)"/>
        </g>
    </g>
</svg>
